<svg width="17" height="17" viewBox="0 0 17 17" fill="none" xmlns="http://www.w3.org/2000/svg">
<path d="M16.15 10.2C15.9246 10.2 15.7084 10.2896 15.549 10.449C15.3896 10.6084 15.3 10.8246 15.3 11.05V14.45C15.3 14.6754 15.2104 14.8916 15.051 15.051C14.8916 15.2104 14.6754 15.3 14.45 15.3H2.55C2.32457 15.3 2.10837 15.2104 1.94896 15.051C1.78955 14.8916 1.7 14.6754 1.7 14.45V11.05C1.7 10.8246 1.61045 10.6084 1.45104 10.449C1.29163 10.2896 1.07543 10.2 0.85 10.2C0.624566 10.2 0.408365 10.2896 0.248959 10.449C0.0895533 10.6084 0 10.8246 0 11.05V14.45C0 15.1263 0.26866 15.7749 0.746878 16.2531C1.2251 16.7313 1.8737 17 2.55 17H14.45C15.1263 17 15.7749 16.7313 16.2531 16.2531C16.7313 15.7749 17 15.1263 17 14.45V11.05C17 10.8246 16.9104 10.6084 16.751 10.449C16.5916 10.2896 16.3754 10.2 16.15 10.2ZM7.8965 11.6535C7.97734 11.7309 8.07266 11.7915 8.177 11.832C8.27875 11.877 8.38876 11.9002 8.5 11.9002C8.61124 11.9002 8.72125 11.877 8.823 11.832C8.92734 11.7915 9.02266 11.7309 9.1035 11.6535L12.5035 8.2535C12.6636 8.09344 12.7535 7.87636 12.7535 7.65C12.7535 7.42364 12.6636 7.20656 12.5035 7.0465C12.3434 6.88644 12.1264 6.79652 11.9 6.79652C11.6736 6.79652 11.4566 6.88644 11.2965 7.0465L9.35 9.0015V0.85C9.35 0.624566 9.26045 0.408365 9.10104 0.248959C8.94163 0.0895533 8.72543 0 8.5 0C8.27457 0 8.05837 0.0895533 7.89896 0.248959C7.73955 0.408365 7.65 0.624566 7.65 0.85V9.0015L5.7035 7.0465C5.62425 6.96725 5.53016 6.90438 5.42661 6.86149C5.32306 6.8186 5.21208 6.79652 5.1 6.79652C4.98792 6.79652 4.87694 6.8186 4.77339 6.86149C4.66984 6.90438 4.57575 6.96725 4.4965 7.0465C4.41725 7.12575 4.35438 7.21984 4.31149 7.32339C4.2686 7.42694 4.24652 7.53792 4.24652 7.65C4.24652 7.76208 4.2686 7.87306 4.31149 7.97661C4.35438 8.08016 4.41725 8.17425 4.4965 8.2535L7.8965 11.6535Z" fill="#AFB0B0"/>
</svg>
