<svg width="298" height="298" viewBox="0 0 298 298" fill="none" xmlns="http://www.w3.org/2000/svg">
<g opacity="0.1" clip-path="url(#clip0_1_336)">
<path d="M168.557 8.10187C157.754 -2.70063 140.247 -2.70063 129.444 8.10187L8.12075 129.444C-2.68175 140.246 -2.68175 157.735 8.12075 168.519L129.481 289.88C140.284 300.682 157.773 300.682 168.557 289.88L289.917 168.519C300.719 157.717 300.719 140.228 289.917 129.444L168.557 8.10187ZM149 74.5C158.965 74.5 166.768 83.1048 165.763 93.0319L159.244 158.35C159.025 160.916 157.851 163.306 155.954 165.048C154.057 166.79 151.576 167.756 149 167.756C146.425 167.756 143.943 166.79 142.046 165.048C140.15 163.306 138.976 160.916 138.757 158.35L132.238 93.0319C132.004 90.6895 132.263 88.324 132.998 86.0879C133.734 83.8517 134.93 81.7944 136.509 80.0486C138.088 78.3028 140.016 76.9071 142.167 75.9514C144.318 74.9958 146.646 74.5013 149 74.5ZM149.037 186.25C153.977 186.25 158.714 188.212 162.207 191.705C165.7 195.198 167.662 199.935 167.662 204.875C167.662 209.815 165.7 214.552 162.207 218.045C158.714 221.538 153.977 223.5 149.037 223.5C144.098 223.5 139.361 221.538 135.868 218.045C132.375 214.552 130.413 209.815 130.413 204.875C130.413 199.935 132.375 195.198 135.868 191.705C139.361 188.212 144.098 186.25 149.037 186.25Z" fill="white"/>
</g>
<defs>
<clipPath id="clip0_1_336">
<rect width="298" height="298" fill="white"/>
</clipPath>
</defs>
</svg>
