<svg width="19" height="18" viewBox="0 0 19 18" fill="none" xmlns="http://www.w3.org/2000/svg">
<path d="M6.85085 6.29578L6.84916 6.29715L6.84756 6.29871L6.85085 6.29578ZM14.3164 6.15588C14.2643 6.10559 14.2064 6.06159 14.1439 6.02477C14.0556 5.97277 13.9575 5.93944 13.8557 5.92685C13.754 5.91426 13.6507 5.92268 13.5524 5.95158C13.454 5.98048 13.3626 6.02925 13.2838 6.09488C13.205 6.16051 13.1406 6.24159 13.0944 6.33313C12.836 6.84215 12.4797 7.29514 12.0459 7.66613C12.1122 7.29234 12.1457 6.91344 12.1459 6.53381C12.1472 5.37888 11.8426 4.24421 11.2628 3.24533C10.6831 2.24644 9.84905 1.41902 8.84556 0.847306C8.73501 0.784641 8.61036 0.751088 8.4833 0.749795C8.35623 0.748501 8.23092 0.77951 8.11913 0.839912C8.00733 0.900314 7.91271 0.988127 7.84415 1.09511C7.77559 1.2021 7.73533 1.32475 7.72715 1.45156C7.68518 2.16269 7.49927 2.8579 7.18069 3.49506C6.86211 4.13222 6.41749 4.69807 5.87377 5.15833L5.70092 5.29895C5.13236 5.68152 4.62909 6.15313 4.21045 6.69568C3.55968 7.51551 3.10888 8.47568 2.89379 9.50006C2.6787 10.5244 2.70523 11.5848 2.97129 12.5972C3.23735 13.6095 3.73562 14.5459 4.42657 15.3322C5.11753 16.1185 5.98217 16.7329 6.95193 17.1268C7.06579 17.1734 7.18936 17.1912 7.31172 17.1786C7.43408 17.1661 7.55149 17.1237 7.65358 17.0551C7.75566 16.9865 7.8393 16.8938 7.8971 16.7852C7.9549 16.6766 7.9851 16.5555 7.98502 16.4325C7.98449 16.3529 7.97189 16.2739 7.94767 16.1981C7.77988 15.5674 7.73156 14.9108 7.80521 14.2623C8.51489 15.6009 9.65406 16.6619 11.0396 17.2748C11.2087 17.3504 11.3999 17.3606 11.5761 17.3033C12.6708 16.95 13.6569 16.3227 14.4408 15.4809C15.2247 14.6391 15.7804 13.6108 16.055 12.4938C16.3296 11.3768 16.314 10.2081 16.0097 9.09882C15.7054 7.98952 15.1225 6.97646 14.3164 6.15588ZM11.3878 15.7792C10.7341 15.4478 10.1574 14.9826 9.69521 14.4138C9.23305 13.8449 8.89578 13.1852 8.70535 12.4774C8.64719 12.2391 8.6022 11.9978 8.57058 11.7545C8.54916 11.5996 8.47986 11.4553 8.37237 11.3417C8.26489 11.2281 8.12459 11.1509 7.9711 11.121C7.92381 11.1116 7.87572 11.107 7.82752 11.1071C7.69571 11.107 7.5662 11.1417 7.45208 11.2077C7.33796 11.2737 7.24325 11.3686 7.1775 11.4828C6.5552 12.5561 6.24225 13.7808 6.27332 15.0211C5.726 14.5956 5.26858 14.0657 4.92758 13.462C4.58657 12.8584 4.36876 12.1931 4.28677 11.5047C4.20478 10.8163 4.26024 10.1184 4.44994 9.45158C4.63963 8.78475 4.95979 8.1622 5.39185 7.62002C5.71991 7.19389 6.11567 6.82448 6.56335 6.52652C6.58274 6.51401 6.60133 6.50031 6.61902 6.4855C6.61902 6.4855 6.84154 6.30139 6.84914 6.29717C7.91766 5.39339 8.67765 4.17881 9.0232 2.82266C9.84037 3.57808 10.3853 4.58218 10.5733 5.67904C10.7613 6.7759 10.5818 7.90414 10.0629 8.88857C9.9943 9.01994 9.96618 9.16866 9.98204 9.31599C9.9979 9.46332 10.057 9.60265 10.152 9.71641C10.2469 9.83017 10.3735 9.91326 10.5156 9.9552C10.6577 9.99714 10.8091 9.99605 10.9506 9.95207C12.0994 9.59195 13.1103 8.88851 13.8473 7.93645C14.2902 8.59067 14.5798 9.33641 14.6944 10.1181C14.8091 10.8998 14.7458 11.6973 14.5094 12.4511C14.273 13.205 13.8695 13.8957 13.329 14.472C12.7886 15.0482 12.125 15.4951 11.3878 15.7792L11.3878 15.7792Z" fill="white"/>
</svg>
