<svg width="19" height="18" viewBox="0 0 19 18" fill="none" xmlns="http://www.w3.org/2000/svg">
<path d="M6.31773 8.06834C6.76274 8.06834 7.19775 7.93638 7.56776 7.68914C7.93777 7.44191 8.22616 7.09051 8.39646 6.67938C8.56675 6.26824 8.61131 5.81584 8.5245 5.37938C8.43768 4.94293 8.22339 4.54202 7.90872 4.22735C7.59405 3.91268 7.19314 3.69839 6.75668 3.61157C6.32022 3.52475 5.86782 3.56931 5.45669 3.73961C5.04556 3.90991 4.69415 4.19829 4.44692 4.5683C4.19969 4.93832 4.06773 5.37333 4.06773 5.81834C4.06838 6.41488 4.30564 6.98679 4.72746 7.40861C5.14927 7.83042 5.72119 8.06769 6.31773 8.06834ZM6.31773 5.06834C6.46606 5.06834 6.61107 5.11232 6.73441 5.19474C6.85774 5.27715 6.95387 5.39428 7.01064 5.53133C7.0674 5.66837 7.08226 5.81917 7.05332 5.96466C7.02438 6.11014 6.95295 6.24378 6.84806 6.34867C6.74317 6.45356 6.60953 6.52499 6.46405 6.55393C6.31856 6.58287 6.16776 6.56801 6.03072 6.51125C5.89367 6.45448 5.77654 6.35835 5.69413 6.23502C5.61171 6.11168 5.56773 5.96667 5.56773 5.81834C5.56786 5.61947 5.64692 5.42878 5.78754 5.28815C5.92817 5.14753 6.11886 5.06847 6.31773 5.06834ZM12.681 9.93162C12.236 9.93162 11.801 10.0636 11.431 10.3108C11.061 10.558 10.7726 10.9095 10.6023 11.3206C10.432 11.7317 10.3874 12.1841 10.4742 12.6206C10.5611 13.057 10.7754 13.4579 11.09 13.7726C11.4047 14.0873 11.8056 14.3016 12.2421 14.3884C12.6785 14.4752 13.1309 14.4306 13.5421 14.2604C13.9532 14.0901 14.3046 13.8017 14.5518 13.4317C14.7991 13.0616 14.931 12.6266 14.931 12.1816C14.9304 11.5851 14.6931 11.0132 14.2713 10.5914C13.8495 10.1695 13.2775 9.93227 12.681 9.93162ZM12.681 12.9316C12.5327 12.9316 12.3877 12.8876 12.2643 12.8052C12.141 12.7228 12.0449 12.6057 11.9881 12.4686C11.9313 12.3316 11.9165 12.1808 11.9454 12.0353C11.9744 11.8898 12.0458 11.7562 12.1507 11.6513C12.2556 11.5464 12.3892 11.475 12.5347 11.446C12.6802 11.4171 12.831 11.4319 12.968 11.4887C13.1051 11.5455 13.2222 11.6416 13.3046 11.7649C13.387 11.8883 13.431 12.0333 13.431 12.1816C13.4309 12.3805 13.3518 12.5712 13.2112 12.7118C13.0706 12.8524 12.8799 12.9315 12.681 12.9316ZM15.2796 3.21973C15.21 3.15007 15.1273 3.09481 15.0363 3.05711C14.9454 3.01941 14.8478 3 14.7493 3C14.6509 3 14.5533 3.01941 14.4623 3.05711C14.3714 3.09481 14.2887 3.15007 14.2191 3.21973L3.71908 13.7197C3.64872 13.7892 3.5928 13.8719 3.55453 13.9631C3.51627 14.0543 3.49641 14.1521 3.4961 14.251C3.49579 14.3498 3.51504 14.4478 3.55273 14.5392C3.59043 14.6306 3.64583 14.7137 3.71575 14.7836C3.78567 14.8535 3.86872 14.9089 3.96014 14.9466C4.05155 14.9843 4.14951 15.0035 4.24839 15.0032C4.34726 15.0029 4.4451 14.9831 4.53627 14.9448C4.62744 14.9065 4.71015 14.8506 4.77962 14.7802L15.2796 4.28023C15.3493 4.21061 15.4045 4.12795 15.4422 4.03696C15.4799 3.94598 15.4993 3.84846 15.4993 3.74998C15.4993 3.6515 15.4799 3.55398 15.4422 3.463C15.4045 3.37202 15.3493 3.28935 15.2796 3.21973Z" fill="white"/>
</svg>
