<svg width="18" height="18" viewBox="0 0 18 18" fill="none" xmlns="http://www.w3.org/2000/svg">
<path d="M16.4991 7.25249C16.4518 7.1153 16.3656 6.99481 16.2511 6.90561C16.1366 6.81642 15.9987 6.76236 15.8541 6.74999L11.5866 6.12749L9.67413 2.24999C9.61271 2.12318 9.51683 2.01624 9.39744 1.94142C9.27806 1.86659 9.14002 1.8269 8.99913 1.8269C8.85824 1.8269 8.72019 1.86659 8.60081 1.94142C8.48143 2.01624 8.38554 2.12318 8.32413 2.24999L6.41163 6.11999L2.14413 6.74999C2.00532 6.76972 1.87482 6.82796 1.76744 6.91811C1.66006 7.00825 1.5801 7.12669 1.53663 7.25999C1.49684 7.39024 1.49327 7.52887 1.5263 7.66101C1.55933 7.79314 1.62772 7.91378 1.72413 8.00999L4.82163 11.01L4.07163 15.27C4.04135 15.4113 4.05254 15.5584 4.10387 15.6935C4.15519 15.8286 4.24446 15.946 4.36093 16.0315C4.47739 16.1171 4.61611 16.1672 4.76038 16.1758C4.90464 16.1844 5.04832 16.1511 5.17413 16.08L8.99913 14.0775L12.8241 16.08C12.9294 16.1394 13.0483 16.1704 13.1691 16.17C13.328 16.1706 13.4829 16.1207 13.6116 16.0275C13.728 15.9441 13.8181 15.8292 13.8712 15.6963C13.9244 15.5634 13.9384 15.4181 13.9116 15.2775L13.1616 11.0175L16.2591 8.01749C16.3674 7.92575 16.4474 7.80516 16.4899 7.66975C16.5324 7.53433 16.5356 7.38964 16.4991 7.25249ZM11.8866 10.2525C11.7998 10.3368 11.7347 10.4408 11.6968 10.5558C11.659 10.6707 11.6494 10.7931 11.6691 10.9125L12.2091 14.0625L9.38913 12.5625C9.27953 12.5083 9.1589 12.4801 9.03663 12.4801C8.91435 12.4801 8.79373 12.5083 8.68413 12.5625L5.86413 14.0625L6.40413 10.9125C6.42381 10.7931 6.4143 10.6707 6.37643 10.5558C6.33856 10.4408 6.27344 10.3368 6.18663 10.2525L3.93663 8.00249L7.09413 7.54499C7.21563 7.52809 7.33113 7.48164 7.4305 7.40973C7.52988 7.33781 7.6101 7.24262 7.66413 7.13249L8.99913 4.27499L10.4091 7.13999C10.4632 7.25012 10.5434 7.34531 10.6428 7.41723C10.7421 7.48914 10.8576 7.53559 10.9791 7.55249L14.1366 8.00999L11.8866 10.2525Z" fill="white"/>
</svg>
