<svg width="16" height="14" viewBox="0 0 16 14" fill="none" xmlns="http://www.w3.org/2000/svg">
<path d="M14.5505 2.09079C14.1739 1.71893 13.7267 1.42395 13.2346 1.2227C12.7424 1.02144 12.2149 0.917853 11.6822 0.917853C11.1495 0.917853 10.6219 1.02144 10.1298 1.2227C9.63764 1.42395 9.19049 1.71893 8.81389 2.09079L8.03229 2.86215L7.2507 2.09079C6.48998 1.34002 5.45822 0.918242 4.3824 0.918242C3.30658 0.918242 2.27482 1.34002 1.5141 2.09079C0.753383 2.84155 0.326015 3.85981 0.326015 4.92156C0.326015 5.98331 0.753383 7.00157 1.5141 7.75233L2.2957 8.5237L7.39259 13.5539C7.74724 13.9039 8.31734 13.9039 8.672 13.5539L13.7689 8.5237L14.5505 7.75233C14.9273 7.38065 15.2262 6.93935 15.4301 6.45364C15.634 5.96793 15.739 5.44732 15.739 4.92156C15.739 4.3958 15.634 3.8752 15.4301 3.38948C15.2262 2.90377 14.9273 2.46247 14.5505 2.09079Z" fill="white"/>
</svg>
