<svg width="285" height="255" viewBox="0 0 285 255" fill="none" xmlns="http://www.w3.org/2000/svg">
<g opacity="0.1">
<path d="M52.5216 89.8018C48.8261 93.486 46.75 98.4828 46.75 103.693C46.75 108.903 48.8261 113.9 52.5216 117.584C56.217 121.269 61.2291 123.338 66.4553 123.338C71.6815 123.338 76.6936 121.269 80.3891 117.584L94.3492 103.719L66.4817 75.9368L52.5216 89.8018ZM87.8696 54.6141L73.9095 68.4791L101.777 96.2616L115.737 82.3966C119.433 78.7124 121.509 73.7156 121.509 68.5053C121.509 63.2951 119.433 58.2983 115.737 54.6141C112.042 50.9299 107.03 48.8601 101.803 48.8601C96.5772 48.8601 91.5651 50.9299 87.8696 54.6141Z" fill="white"/>
<path d="M131.014 194.105C129.443 172.704 129.478 151.217 131.12 129.822C131.955 118.859 136.712 108.559 144.524 100.799C152.337 93.0397 162.685 88.3355 173.685 87.5438C188.33 86.4934 203.133 85.9682 217.831 85.9682C227.107 85.984 236.253 86.1678 245.435 86.5985C245.902 75.2776 245.532 63.9379 244.328 52.6712C243.322 39.6391 237.66 27.3993 228.37 18.1762C219.08 8.95314 206.779 3.35902 193.703 2.41049C149.001 -0.675747 104.142 -0.79856 59.4229 2.04286C45.0923 1.57611 31.1289 6.61199 20.4146 16.1112C9.70022 25.6103 3.05271 38.8477 1.84402 53.0913C-0.649353 87.2373 -0.614138 121.52 1.94938 155.661C2.58501 164.203 5.24124 172.473 9.70051 179.794C14.1598 187.115 20.2953 193.279 27.6044 197.781C28.6463 198.411 29.5085 199.297 30.1081 200.355C30.7077 201.413 31.0246 202.606 31.0285 203.821V235.28C31.0675 238.916 32.2298 242.452 34.3569 245.406C36.4841 248.36 39.4729 250.589 42.9163 251.789C46.3596 252.988 50.0903 253.101 53.6001 252.111C57.11 251.121 60.2285 249.077 62.531 246.256L91.1887 210.701C91.8641 209.846 92.7296 209.158 93.717 208.694C94.7043 208.229 95.7865 207.999 96.8781 208.022C106.608 208.322 119.293 208.348 130.382 208.338C136.688 208.327 131.151 201.82 131.436 198.044C131.225 196.363 131.12 195.26 131.014 194.105ZM87.8699 125.042C58.7275 152.331 17.7111 111.466 45.094 82.3969L80.3894 47.1567C86.0813 41.5956 93.7446 38.4986 101.714 38.5388C109.683 38.5789 117.315 41.7529 122.95 47.371C128.586 52.9891 131.769 60.5974 131.81 68.5425C131.85 76.4876 128.743 84.1275 123.165 89.8021L87.8699 125.042Z" fill="white"/>
<path d="M293.899 130.872C293.146 121.67 288.879 113.108 281.978 106.951C275.077 100.795 266.069 97.5136 256.813 97.7851C229.376 95.9924 201.849 96.0626 174.422 97.9952C165.942 98.6185 157.968 102.252 151.947 108.236C145.925 114.22 142.255 122.158 141.602 130.609C140.005 151.551 139.987 172.583 141.55 193.527C142.144 202.083 145.829 210.134 151.921 216.189C158.014 222.244 166.101 225.891 174.685 226.457C195.141 227.817 213.689 228.232 233.792 227.717C234.143 227.705 234.493 227.775 234.813 227.921C235.133 228.067 235.414 228.284 235.635 228.557L253.178 250.3C254.855 252.337 257.119 253.811 259.665 254.523C262.21 255.234 264.914 255.149 267.409 254.277C269.903 253.406 272.07 251.792 273.614 249.652C275.158 247.513 276.005 244.953 276.041 242.317V223.095C276.05 222.706 276.156 222.324 276.349 221.985C276.542 221.646 276.816 221.36 277.147 221.152C281.897 218.239 285.886 214.245 288.789 209.498C291.692 204.751 293.425 199.386 293.846 193.842C295.365 172.88 295.383 151.837 293.899 130.872ZM191.384 167.478C189.987 167.478 188.647 166.924 187.659 165.94C186.672 164.955 186.116 163.619 186.116 162.226C186.116 160.833 186.672 159.497 187.659 158.512C188.647 157.527 189.987 156.974 191.384 156.974C192.782 156.974 194.122 157.527 195.109 158.512C196.097 159.497 196.652 160.833 196.652 162.226C196.652 163.619 196.097 164.955 195.109 165.94C194.122 166.924 192.782 167.478 191.384 167.478ZM217.724 167.478C216.327 167.478 214.987 166.924 213.999 165.94C213.011 164.955 212.456 163.619 212.456 162.226C212.456 160.833 213.011 159.497 213.999 158.512C214.987 157.527 216.327 156.974 217.724 156.974C219.121 156.974 220.461 157.527 221.449 158.512C222.437 159.497 222.992 160.833 222.992 162.226C222.992 163.619 222.437 164.955 221.449 165.94C220.461 166.924 219.121 167.478 217.724 167.478ZM244.064 167.478C242.667 167.478 241.327 166.924 240.339 165.94C239.351 164.955 238.796 163.619 238.796 162.226C238.796 160.833 239.351 159.497 240.339 158.512C241.327 157.527 242.667 156.974 244.064 156.974C245.461 156.974 246.801 157.527 247.789 158.512C248.777 159.497 249.332 160.833 249.332 162.226C249.332 163.619 248.777 164.955 247.789 165.94C246.801 166.924 245.461 167.478 244.064 167.478Z" fill="white"/>
</g>
</svg>
