<svg width="377" height="324" viewBox="0 0 377 324" fill="none" xmlns="http://www.w3.org/2000/svg">
<path d="M339.472 37.5831C330.749 28.8384 320.392 21.9016 308.992 17.1688C297.593 12.436 285.375 10 273.035 10C260.696 10 248.478 12.436 237.079 17.1688C225.679 21.9016 215.322 28.8384 206.599 37.5831L188.495 55.7228L170.392 37.5831C152.772 19.9278 128.874 10.0092 103.955 10.0092C79.0369 10.0092 55.139 19.9278 37.5189 37.5831C19.8988 55.2383 10 79.184 10 104.152C10 129.121 19.8988 153.066 37.5189 170.722L55.6224 188.861L173.774 307.249C181.9 315.391 195.091 315.391 203.217 307.249L321.368 188.861L339.472 170.722C348.199 161.981 355.122 151.603 359.846 140.181C364.569 128.759 367 116.516 367 104.152C367 91.7885 364.569 79.5458 359.846 68.1236C355.122 56.7014 348.199 46.3236 339.472 37.5831Z" stroke="#EE8232" stroke-opacity="0.2" stroke-width="20" stroke-linecap="round" stroke-linejoin="round"/>
</svg>
