<svg width="24" height="32" viewBox="0 0 24 32" fill="none" xmlns="http://www.w3.org/2000/svg">
<path fill-rule="evenodd" clip-rule="evenodd" d="M16.3037 0.52971C15.772 0.66555 15.4189 0.876038 14.8779 1.37952C14.3566 1.86461 14.2856 1.9714 10.9 7.36774C9.00403 10.3896 7.43793 12.8623 7.41969 12.8626C7.40146 12.8629 7.20867 12.4454 6.99121 11.9348C6.54847 10.8953 6.01914 9.87003 5.65576 9.34835C5.27679 8.80438 4.65385 8.24099 4.23737 8.06563C3.75922 7.86428 2.83926 7.8107 2.30602 7.95305C1.4938 8.16987 0.819877 8.82161 0.615943 9.58752C0.497268 10.0332 0.466572 9.64913 0.987214 14.2336C1.44176 18.2365 1.25944 20.4887 0.250174 23.3363C0.00579757 24.0259 -0.017009 24.1431 0.00778664 24.5845C0.0306596 24.9926 0.0713004 25.134 0.25866 25.4567C0.381577 25.6686 0.593467 25.9289 0.729512 26.0352C1.16184 26.373 10.743 31.4154 11.1685 31.5291C11.7439 31.6827 12.2806 31.6247 12.9118 31.3407C13.3675 31.1357 13.5762 30.9707 14.9409 29.7359C15.7775 28.9788 16.7708 28.0718 17.1483 27.7202C18.4117 26.543 19.82 24.8999 20.7861 23.476C21.8049 21.9742 23.6823 18.9016 23.833 18.4893C24.1139 17.7209 24.0375 16.8203 23.6258 16.0476C23.3964 15.617 22.7525 14.987 22.2971 14.7477L21.9391 14.5595L21.9383 14.1835C21.9358 12.9636 20.9956 11.7088 19.7621 11.2788C19.4624 11.1743 19.4531 11.1631 19.3764 10.8151C19.1368 9.72853 18.425 8.83568 17.4517 8.40064L17.1742 8.27667L17.3044 8.04231C17.376 7.91341 17.722 7.37687 18.0733 6.84995C19.2056 5.1518 19.6752 4.19197 19.8083 3.30429C19.9312 2.48475 19.6707 1.75708 19.0801 1.26937C18.2354 0.571905 17.2088 0.298399 16.3037 0.52971ZM17.5911 2.4557C18.0561 2.83065 18.0185 3.39483 17.4719 4.24281C17.2758 4.54707 15.9136 6.71344 14.4448 9.057C12.1378 12.7379 11.7735 13.3527 11.7682 13.5734C11.758 14.0107 12.1651 14.3842 12.7021 14.4302C13.2645 14.4783 13.3156 14.4205 14.7861 12.0721C15.5096 10.9167 16.1118 9.94511 16.1244 9.9129C16.173 9.7885 16.7171 10.0131 17.0028 10.2754C17.3234 10.5698 17.5378 11.0893 17.4776 11.4256C17.4589 11.53 16.844 12.5736 16.1112 13.7448C14.5904 16.1752 14.5827 16.1954 15.0108 16.6306C15.4168 17.0432 16.0448 17.1081 16.3862 16.7727C16.4783 16.6822 16.9191 16.0191 17.3659 15.2991C17.8126 14.5791 18.3404 13.736 18.5386 13.4254L18.8989 12.8608L19.2336 13.0281C20.0286 13.4255 20.1943 14.1045 19.7531 15.1579C19.6525 15.3983 19.1443 16.2703 18.624 17.0956C17.6132 18.6987 17.5462 18.8685 17.7902 19.2106C18.0261 19.5412 18.6603 19.6659 18.9696 19.4425C19.06 19.3772 19.5741 18.6237 20.112 17.7681C20.6558 16.9032 21.1313 16.2124 21.1829 16.2124C21.3371 16.2124 21.7898 16.6294 21.9352 16.9053C22.1234 17.2623 22.1153 17.7383 21.9144 18.1304C21.8285 18.2978 21.214 19.2979 20.5487 20.3528C18.0499 24.3147 17.365 25.11 13.5937 28.429C12.4478 29.4376 11.9337 29.8512 11.8262 29.8512C11.7428 29.8512 9.68041 28.7935 7.24321 27.5007C4.80601 26.208 2.62426 25.0507 2.39493 24.9291C2.11992 24.7833 1.96445 24.6588 1.93847 24.5636C1.91433 24.4755 2.0049 24.1075 2.17084 23.619C3.11487 20.8399 3.40419 18.368 3.08775 15.7862C2.79491 13.3973 2.64647 12.0054 2.57811 11.008L2.50306 9.91345L2.64932 9.8047C2.99506 9.54757 3.32006 9.5919 3.74861 9.95467C4.32548 10.443 4.79434 11.345 5.62466 13.5638C5.8878 14.2671 6.17361 14.9419 6.2598 15.0634C6.44782 15.3286 6.8962 15.5432 7.25832 15.5413C7.61421 15.5395 8.0307 15.3542 8.23245 15.1079C8.32454 14.9954 10.0173 12.3278 11.9942 9.17993C16.3279 2.27925 16.1047 2.61712 16.4566 2.42337C16.8652 2.19851 17.287 2.21051 17.5911 2.4557Z" fill="#E80055"/>
</svg>
