<svg width="18" height="15" viewBox="0 0 18 15" fill="none" xmlns="http://www.w3.org/2000/svg">
<path d="M0.837609 0.0618262C0.237789 0.276396 -0.103573 0.895724 0.0280951 1.5248C0.12075 1.96857 0.486495 2.36358 0.910758 2.47574C1.0278 2.50988 3.74406 2.51963 8.86448 2.51475L16.6329 2.50012L16.8328 2.39284C17.0669 2.26605 17.3205 1.99296 17.4278 1.74913C17.5253 1.5248 17.5253 0.988379 17.4278 0.764056C17.3205 0.520226 17.0669 0.247137 16.8328 0.120345L16.6329 0.0130601L8.83035 0.0033071C2.21769 -0.00644612 0.998537 0.0033071 0.837609 0.0618262Z" fill="#00B8CC"/>
<path d="M0.837609 6.30389C0.237789 6.51846 -0.103573 7.13779 0.0280951 7.76687C0.12075 8.21064 0.486495 8.60564 0.910758 8.71781C1.0278 8.75194 3.74406 8.76169 8.86448 8.75682L16.6329 8.74219L16.8328 8.6349C17.0669 8.50811 17.3205 8.23502 17.4278 7.99119C17.5253 7.76687 17.5253 7.23044 17.4278 7.00612C17.3205 6.76229 17.0669 6.4892 16.8328 6.36241L16.6329 6.25513L8.83035 6.24537C2.21769 6.23562 0.998537 6.24537 0.837609 6.30389Z" fill="#00B8CC"/>
<path d="M0.837609 12.5459C0.237789 12.7605 -0.103573 13.3798 0.0280951 14.0089C0.12075 14.4526 0.486495 14.8476 0.910758 14.9598C1.0278 14.9939 3.74406 15.0037 8.86448 14.9988L16.6329 14.9842L16.8328 14.8769C17.0669 14.7501 17.3205 14.477 17.4278 14.2332C17.5253 14.0089 17.5253 13.4724 17.4278 13.2481C17.3205 13.0043 17.0669 12.7312 16.8328 12.6044L16.6329 12.4971L8.83035 12.4874C2.21769 12.4776 0.998537 12.4874 0.837609 12.5459Z" fill="#00B8CC"/>
</svg>
