<svg width="17" height="18" viewBox="0 0 17 18" fill="none" xmlns="http://www.w3.org/2000/svg">
<path d="M1.08921 0.243527C0.6077 0.407129 0.195925 0.849204 0.0531322 1.35742C0.00664153 1.5245 0 1.89347 0 4.35447C0 6.81547 0.00664153 7.18445 0.0531322 7.35153C0.195925 7.8667 0.611021 8.3053 1.09917 8.46542C1.29178 8.52807 1.44453 8.53156 3.98492 8.53156C6.5253 8.53156 6.67806 8.52807 6.87066 8.46542C7.35881 8.3053 7.77391 7.8667 7.9167 7.35153C7.96319 7.18445 7.96983 6.81547 7.96983 4.35099C7.96983 1.69158 7.96651 1.53146 7.90674 1.32957C7.75398 0.817875 7.33557 0.382763 6.84409 0.233084C6.6847 0.184351 6.3327 0.177389 3.97163 0.18087C1.45449 0.18087 1.26521 0.184351 1.08921 0.243527Z" fill="white"/>
<path d="M10.122 0.243527C9.64046 0.407129 9.22869 0.849204 9.08589 1.35742C9.0394 1.5245 9.03276 1.89347 9.03276 4.35447C9.03276 6.81547 9.0394 7.18445 9.08589 7.35153C9.22869 7.8667 9.64378 8.3053 10.1319 8.46542C10.3245 8.52807 10.4773 8.53156 13.0177 8.53156C15.5581 8.53156 15.7108 8.52807 15.9034 8.46542C16.3916 8.3053 16.8067 7.8667 16.9495 7.35153C16.996 7.18445 17.0026 6.81547 17.0026 4.35099C17.0026 1.69158 16.9993 1.53146 16.9395 1.32957C16.7867 0.817875 16.3683 0.382763 15.8769 0.233084C15.7175 0.184351 15.3655 0.177389 13.0044 0.18087C10.4873 0.18087 10.298 0.184351 10.122 0.243527Z" fill="white"/>
<path d="M1.08921 9.71188C0.6077 9.87548 0.195925 10.3176 0.0531322 10.8258C0.00664153 10.9929 0 11.3618 0 13.8228C0 16.2838 0.00664153 16.6528 0.0531322 16.8199C0.195925 17.3351 0.611021 17.7736 1.09917 17.9338C1.29178 17.9964 1.44453 17.9999 3.98492 17.9999C6.5253 17.9999 6.67806 17.9964 6.87066 17.9338C7.35881 17.7736 7.77391 17.3351 7.9167 16.8199C7.96319 16.6528 7.96983 16.2838 7.96983 13.8193C7.96983 11.1599 7.96651 10.9998 7.90674 10.7979C7.75398 10.2862 7.33557 9.85112 6.84409 9.70144C6.6847 9.6527 6.3327 9.64574 3.97163 9.64922C1.45449 9.64922 1.26521 9.6527 1.08921 9.71188Z" fill="white"/>
<path d="M10.122 9.71188C9.64046 9.87548 9.22869 10.3176 9.08589 10.8258C9.0394 10.9929 9.03276 11.3618 9.03276 13.8228C9.03276 16.2838 9.0394 16.6528 9.08589 16.8199C9.22869 17.3351 9.64378 17.7736 10.1319 17.9338C10.3245 17.9964 10.4773 17.9999 13.0177 17.9999C15.5581 17.9999 15.7108 17.9964 15.9034 17.9338C16.3916 17.7736 16.8067 17.3351 16.9495 16.8199C16.996 16.6528 17.0026 16.2838 17.0026 13.8193C17.0026 11.1599 16.9993 10.9998 16.9395 10.7979C16.7867 10.2862 16.3683 9.85112 15.8769 9.70144C15.7175 9.6527 15.3655 9.64574 13.0044 9.64922C10.4873 9.64922 10.298 9.6527 10.122 9.71188Z" fill="white"/>
</svg>
