<svg width="20" height="21" viewBox="0 0 20 21" fill="none" xmlns="http://www.w3.org/2000/svg">
<path d="M4.47308 3.8908L8 1.54883L14.5 2.07056L16.5335 3.92723C17.815 5.09728 18.7161 6.62477 19.1204 8.3123C19.6814 10.6537 19.244 13.123 17.9129 15.1293L17.2556 16.12C16.1251 17.824 14.406 19.0515 12.4272 19.5677L11.4756 19.816C10.1995 20.1489 8.84688 20.0216 7.65531 19.4564L4.53342 17.9757C4.2149 17.8246 3.83543 17.8944 3.59151 18.1489C3.01359 18.7519 2.00968 18.204 2.20429 17.3917L2.44128 16.4025C2.47992 16.2413 2.48139 16.0733 2.44558 15.9113L1.44629 11.3929C1.15473 10.0745 1.24234 8.70055 1.69898 7.42989C2.2191 5.9826 3.19191 4.74153 4.47308 3.8908Z" fill="#00B8CC"/>
<path d="M17.0854 3.28505C16.1639 2.35915 15.0664 1.62502 13.8568 1.12541C12.6472 0.625812 11.3498 0.370737 10.0402 0.375054C4.55276 0.375054 0.0804022 4.82504 0.0804022 10.285C0.0804022 12.035 0.542714 13.735 1.40704 15.235L0 20.375L5.27638 18.995C6.73367 19.785 8.37186 20.205 10.0402 20.205C15.5276 20.205 20 15.755 20 10.295C20 7.64503 18.9648 5.15504 17.0854 3.28505ZM10.0402 18.525C8.55276 18.525 7.09548 18.125 5.81909 17.375L5.51759 17.195L2.38191 18.015L3.21608 14.975L3.01508 14.665C2.18849 13.3521 1.74967 11.8343 1.74874 10.285C1.74874 5.74504 5.46734 2.04505 10.0301 2.04505C12.2412 2.04505 14.3216 2.90505 15.8794 4.46504C16.6509 5.2289 17.2622 6.13758 17.678 7.13836C18.0938 8.13915 18.3057 9.21212 18.3015 10.295C18.3216 14.835 14.603 18.525 10.0402 18.525Z" fill="#00B8CC"/>
<path d="M14.598 12.035C14.3467 11.915 13.1206 11.315 12.8995 11.225C12.6683 11.145 12.5075 11.105 12.3367 11.345C12.1658 11.595 11.6935 12.155 11.5528 12.315C11.4121 12.485 11.2613 12.505 11.01 12.375C10.7588 12.255 9.95477 11.985 9.01005 11.145C8.26633 10.485 7.77387 9.67499 7.62312 9.42499C7.48241 9.17499 7.60301 9.04499 7.73367 8.91499C7.84422 8.80499 7.98492 8.62499 8.10553 8.48499C8.22613 8.34499 8.27638 8.23499 8.35678 8.07499C8.43719 7.90499 8.39698 7.76499 8.33668 7.64499C8.27638 7.52499 7.77387 6.305 7.57286 5.805C7.37186 5.325 7.1608 5.385 7.01005 5.375H6.52764C6.35678 5.375 6.09548 5.435 5.86432 5.685C5.64322 5.935 5 6.535 5 7.75499C5 8.97499 5.89447 10.155 6.01508 10.315C6.13568 10.485 7.77387 12.985 10.2663 14.055C10.8593 14.315 11.3216 14.465 11.6834 14.575C12.2764 14.765 12.8191 14.735 13.2513 14.675C13.7337 14.605 14.7286 14.075 14.9296 13.495C15.1407 12.915 15.1407 12.425 15.0704 12.315C15 12.205 14.8492 12.155 14.598 12.035Z" fill="#F5F5F5"/>
</svg>
