<svg width="94" height="94" viewBox="0 0 94 94" fill="none" xmlns="http://www.w3.org/2000/svg">
<path d="M46.9608 7.83337C25.3407 7.83337 7.83325 25.38 7.83325 47C7.83325 68.62 25.3407 86.1667 46.9608 86.1667C68.6199 86.1667 86.1666 68.62 86.1666 47C86.1666 25.38 68.6199 7.83337 46.9608 7.83337ZM62.6666 62.6667C62.3042 63.0298 61.8738 63.3179 61.4 63.5144C60.9262 63.7109 60.4183 63.8121 59.9053 63.8121C59.3924 63.8121 58.8844 63.7109 58.4106 63.5144C57.9368 63.3179 57.5064 63.0298 57.1441 62.6667L44.2583 49.7809C43.8882 49.4181 43.5938 48.9856 43.3921 48.5082C43.1904 48.0309 43.0854 47.5182 43.0833 47V31.3334C43.0833 29.1792 44.8457 27.4167 46.9999 27.4167C49.1541 27.4167 50.9166 29.1792 50.9166 31.3334V45.3942L62.6666 57.1442C64.1941 58.6717 64.1941 61.1392 62.6666 62.6667Z" fill="#F8F8F8"/>
</svg>
