<svg width="108" height="108" viewBox="0 0 108 108" fill="none" xmlns="http://www.w3.org/2000/svg">
<path d="M65.6532 16.0596C66.3069 15.8138 66.8399 15.3243 67.1403 14.6938C67.4407 14.0634 67.4851 13.3411 67.2643 12.6786C67.0435 12.0161 66.5745 11.4649 65.9559 11.1408C65.3374 10.8167 64.6173 10.7449 63.9468 10.9404C58.8816 12.6252 55.7226 16.7832 53.8704 21.2382C53.6192 21.8403 53.3887 22.4509 53.1792 23.0688C52.1693 21.1529 50.8768 19.3999 49.3452 17.8686C47.2697 15.7886 44.7905 14.1551 42.0603 13.0685C39.3301 11.982 36.4065 11.4655 33.4692 11.5506C31.9649 11.5914 30.5334 12.2069 29.4688 13.2704C28.4043 14.334 27.7875 15.765 27.7452 17.2692C27.6601 20.2064 28.1767 23.1301 29.2632 25.8603C30.3497 28.5905 31.9832 31.0696 34.0632 33.1452L34.236 33.3072C29.7 34.2898 25.6008 36.7066 22.5451 40.1999C19.4894 43.6933 17.6395 48.0776 17.2692 52.704L17.2368 53.1036C16.5239 61.9985 18.4192 70.9083 22.6908 78.7428L24.6294 82.296C24.6834 82.3878 24.7374 82.4796 24.8022 82.566L30.2022 90.1368C31.4261 91.8508 33.0087 93.2776 34.8399 94.3179C36.6712 95.3583 38.7071 95.9872 40.806 96.1609C42.9049 96.3346 45.0165 96.049 46.9939 95.3238C48.9712 94.5987 50.7668 93.4515 52.2558 91.962C52.4845 91.7333 52.756 91.5518 53.0548 91.428C53.3536 91.3042 53.6739 91.2405 53.9973 91.2405C54.3208 91.2405 54.6411 91.3042 54.9399 91.428C55.2387 91.5518 55.5102 91.7333 55.7388 91.962C57.2278 93.4515 59.0235 94.5987 61.0008 95.3238C62.9782 96.049 65.0897 96.3346 67.1887 96.1609C69.2876 95.9872 71.3235 95.3583 73.1547 94.3179C74.986 93.2776 76.5686 91.8508 77.7924 90.1368L83.1925 82.5714C83.2573 82.4832 83.3168 82.3913 83.3707 82.296L85.3038 78.7428C89.5773 70.9088 91.4745 61.999 90.7633 53.1036L90.7309 52.704C90.4918 49.7226 89.6361 46.8233 88.2181 44.1898C86.8 41.5563 84.8505 39.246 82.493 37.4053C80.1355 35.5646 77.4214 34.2336 74.5227 33.4965C71.6239 32.7595 68.6036 32.6325 65.6532 33.1236L56.7 34.614C56.754 30.9366 57.402 26.8002 58.8492 23.3118C60.3666 19.6668 62.613 17.0748 65.6532 16.0596ZM37.3032 48.4596C36.4752 48.7223 35.7073 49.1463 35.0437 49.707C34.3802 50.2676 33.8341 50.954 33.4368 51.7266C32.4324 53.6058 31.752 56.7054 32.3838 61.7652C32.4726 62.4763 32.2753 63.1935 31.8353 63.7591C31.3953 64.3247 30.7486 64.6923 30.0375 64.7811C29.3265 64.8699 28.6092 64.6726 28.0436 64.2326C27.4781 63.7926 27.1104 63.1459 27.0216 62.4348C26.3088 56.6892 26.973 52.3638 28.674 49.1832C30.402 45.9432 33.0318 44.1936 35.5968 43.335C36.2764 43.108 37.0183 43.1603 37.6593 43.4803C38.3004 43.8003 38.788 44.3618 39.015 45.0414C39.242 45.721 39.1898 46.4629 38.8698 47.1039C38.5498 47.745 37.9828 48.2326 37.3032 48.4596Z" fill="#F8F8F8"/>
</svg>
