<svg width="94" height="94" viewBox="0 0 94 94" fill="none" xmlns="http://www.w3.org/2000/svg">
<path d="M22.325 32.8021C25.6542 31.0396 29.0982 29.7014 32.6572 28.7875C36.2161 27.8736 39.8547 27.4167 43.5729 27.4167C45.5312 27.4167 47.4739 27.5473 49.4009 27.8084C51.3279 28.0695 53.2366 28.4611 55.1271 28.9834C58.391 29.8973 60.8885 30.5174 62.6197 30.8438C64.3508 31.1702 66.1943 31.3334 68.15 31.3334H71.7729L73.4375 15.6667H20.4646L22.325 32.8021ZM27.4167 86.1667C25.3931 86.1667 23.6306 85.5139 22.1292 84.2084C20.6278 82.9028 19.7792 81.2382 19.5833 79.2146L11.75 7.83337H82.25L74.4167 79.2146C74.2208 81.2382 73.3722 82.9028 71.8708 84.2084C70.3694 85.5139 68.6069 86.1667 66.5833 86.1667H27.4167Z" fill="#F8F8F8"/>
</svg>
