<svg width="73" height="17" viewBox="0 0 73 17" fill="none" xmlns="http://www.w3.org/2000/svg">
<g clip-path="url(#clip0_4_620)">
<mask id="mask0_4_620" style="mask-type:luminance" maskUnits="userSpaceOnUse" x="0" y="0" width="36" height="17">
<path d="M35.4941 0.420899L0 0.420898L-1.91646e-07 16.6112L35.4941 16.6112L35.4941 0.420899Z" fill="white"/>
</mask>
<g mask="url(#mask0_4_620)">
<path d="M12.4775 12.2826C12.4775 13.1144 12.2572 13.8293 11.8166 14.4273C11.3693 15.0308 10.7694 15.5063 10.0775 15.8055C9.31292 16.1357 8.48616 16.3 7.65248 16.2874L0.537102 16.2874C0.442245 16.2874 0.351273 16.25 0.284199 16.1834C0.217125 16.1168 0.179443 16.0265 0.179443 15.9324L0.179443 1.10463C0.179443 1.01047 0.217125 0.920154 0.284199 0.853567C0.351273 0.78698 0.442245 0.749573 0.537102 0.749573L8.24984 0.749573C8.98482 0.749573 9.62047 0.942992 10.1569 1.32983C10.6882 1.71344 11.1115 2.22596 11.3863 2.81839C11.6699 3.4098 11.8168 4.05657 11.8166 4.71154C11.8158 5.45822 11.614 6.19112 11.2321 6.83442C10.9754 7.28352 10.6222 7.67103 10.1977 7.96936C10.147 8.0061 10.1067 8.0553 10.0811 8.11215C10.0554 8.169 10.0451 8.23158 10.0512 8.29354C10.0573 8.35556 10.0796 8.41497 10.1159 8.46578C10.1522 8.5166 10.2013 8.5572 10.2582 8.58341C10.8278 8.85416 11.3213 9.26029 11.6948 9.76574C12.2166 10.4658 12.4775 11.3048 12.4775 12.2826ZM2.66793 3.20573L2.66793 7.1129C2.66793 7.20705 2.70561 7.2974 2.77269 7.36397C2.83976 7.43054 2.93073 7.46796 3.02559 7.46796L7.18439 7.46796C7.57377 7.47394 7.95655 7.36752 8.28614 7.16172C8.61144 6.95847 8.87902 6.67601 9.06346 6.34122C9.25837 5.98167 9.35707 5.57846 9.35003 5.17019C9.35881 4.75849 9.27188 4.35033 9.09597 3.9774C8.936 3.64492 8.6886 3.36146 8.37986 3.15693C8.0662 2.95119 7.69719 2.84443 7.32126 2.85066L3.02559 2.85066C2.97862 2.85066 2.93211 2.85984 2.88872 2.87769C2.84533 2.89553 2.8059 2.92169 2.77269 2.95466C2.73948 2.98763 2.71313 3.02677 2.69516 3.06985C2.67719 3.11292 2.66793 3.1591 2.66793 3.20573ZM9.96476 11.8263C9.96875 11.4088 9.87036 10.9966 9.6782 10.6252C9.50017 10.2764 9.23907 9.9759 8.9175 9.74998C8.59021 9.52762 8.2009 9.41291 7.80448 9.42194L3.02559 9.42194C2.93073 9.42194 2.83976 9.45931 2.77269 9.52594C2.70561 9.5925 2.66793 9.68279 2.66793 9.77695L2.66793 13.8373C2.66793 13.8839 2.67719 13.9301 2.69516 13.9732C2.71313 14.0162 2.73948 14.0554 2.77269 14.0884C2.8059 14.1213 2.84533 14.1475 2.88872 14.1653C2.93211 14.1831 2.97862 14.1924 3.02559 14.1924L7.65018 14.1924C8.06851 14.1991 8.47924 14.0809 8.82902 13.853C9.1687 13.6329 9.45197 13.337 9.65628 12.989C9.86295 12.6362 9.96956 12.2344 9.96476 11.8263Z" fill="white"/>
<path d="M16.4985 12.4343C16.7768 12.0665 17.0278 11.74 17.1723 11.3587L17.1723 9.70271C16.9976 9.22154 16.6755 8.95204 16.2112 8.56845C16.0199 8.41004 15.8037 8.22989 15.5715 8.01219C15.2638 7.72488 14.9876 7.40605 14.7473 7.06114L14.7473 8.92501C14.8635 8.74312 14.9897 8.5677 15.1254 8.39957C15.1575 8.36333 15.2024 8.34079 15.2508 8.33662C15.2993 8.33245 15.3474 8.34689 15.3854 8.37703C15.4233 8.40717 15.4481 8.45064 15.4546 8.49846C15.4611 8.54628 15.4489 8.59473 15.4203 8.63377C15.1463 8.96443 14.9198 9.33126 14.7473 9.72369L14.7473 11.6236C14.8441 11.8137 14.9656 11.9904 15.1088 12.1491C15.5012 12.5882 16.181 13.1032 16.2891 13.1842C16.3935 13.2353 16.8222 13.4702 17.1723 14.0438L17.1723 12.1491C17.0566 12.3225 16.9296 12.4906 16.8002 12.6603L16.6876 12.8104C16.6727 12.8301 16.654 12.8467 16.6327 12.8593C16.6113 12.8718 16.5877 12.8801 16.5631 12.8836C16.5385 12.8871 16.5135 12.8857 16.4895 12.8796C16.4654 12.8735 16.4428 12.8627 16.4229 12.8479C16.4031 12.8332 16.3863 12.8146 16.3737 12.7934C16.361 12.7722 16.3528 12.7487 16.3492 12.7244C16.3457 12.7 16.3471 12.6751 16.3533 12.6513C16.3594 12.6274 16.3703 12.6049 16.3851 12.5852L16.4985 12.4343ZM16.1137 13.516C16.101 13.5103 16.0889 13.5035 16.0774 13.4958C16.0449 13.4717 15.2774 12.902 14.826 12.3976C14.8002 12.3683 14.7738 12.3382 14.7504 12.306L14.7504 14.0205C14.8897 13.8193 15.0507 13.6338 15.2305 13.4673C15.267 13.433 15.3157 13.4146 15.3659 13.4159C15.4161 13.4174 15.4637 13.4385 15.4982 13.4747C15.5327 13.511 15.5513 13.5594 15.5499 13.6092C15.5484 13.659 15.5271 13.7063 15.4906 13.7405C15.1125 14.0948 14.8645 14.4836 14.7511 14.901L14.7511 15.9324C14.7515 16.0264 14.7893 16.1166 14.8563 16.1831C14.9233 16.2495 15.014 16.287 15.1088 16.2875L16.8184 16.2875C16.9132 16.2872 17.0041 16.2498 17.0711 16.1832C17.1381 16.1167 17.1759 16.0265 17.1761 15.9324L17.1761 15.0354C16.8902 13.8779 16.1485 13.5318 16.1137 13.516ZM16.9016 4.8527C16.8732 4.84508 16.844 4.84129 16.8146 4.84143L15.105 4.84143C15.0101 4.84143 14.9192 4.87885 14.8521 4.94543C14.785 5.01202 14.7473 5.10233 14.7473 5.1965L14.7473 6.31347C14.9432 6.73534 15.297 7.23605 15.8316 7.7397C16.0585 7.94992 16.2672 8.12559 16.454 8.28095C16.7145 8.48295 16.955 8.70918 17.1723 8.95652L17.1723 6.98909C17.0065 7.24782 16.8088 7.48513 16.584 7.69542C16.5659 7.71236 16.5447 7.72556 16.5215 7.73428C16.4982 7.74306 16.4735 7.74717 16.4487 7.74648C16.4239 7.74574 16.3995 7.74013 16.3768 7.73004C16.3541 7.71996 16.3337 7.70551 16.3167 7.68758C16.2997 7.66964 16.2864 7.64853 16.2775 7.62549C16.2688 7.60245 16.2646 7.57786 16.2653 7.55326C16.2661 7.5286 16.2717 7.50438 16.2818 7.48183C16.2921 7.45935 16.3066 7.43912 16.3246 7.42218C16.7113 7.06942 17.0027 6.62602 17.1723 6.13257L17.1723 5.1965C17.1723 5.11742 17.1457 5.04062 17.0966 4.97832C17.0475 4.91602 16.9789 4.8718 16.9016 4.8527Z" fill="white"/>
<path d="M16.7746 0.749573L15.145 0.749573C14.9254 0.749573 14.7473 0.926351 14.7473 1.14442L14.7473 2.86567C14.7473 3.08374 14.9254 3.26052 15.145 3.26052L16.7746 3.26052C16.9942 3.26052 17.1723 3.08374 17.1723 2.86567L17.1723 1.14442C17.1723 0.926351 16.9942 0.749573 16.7746 0.749573Z" fill="white"/>
<path d="M17.1721 6.13248C17.2502 5.91093 17.2878 5.67731 17.2833 5.44263C17.2858 5.40602 17.2803 5.36932 17.2672 5.335C17.2542 5.30068 17.2339 5.26954 17.2076 5.2437C17.1972 5.23575 17.1858 5.2292 17.1736 5.22418L17.1736 5.19641C17.1736 5.11733 17.147 5.04053 17.0979 4.97823C17.0489 4.91593 16.9802 4.87171 16.903 4.85261C16.9146 4.84738 16.9267 4.84335 16.9392 4.8406C17.0251 4.82405 17.1136 4.82482 17.1991 4.84288C17.2847 4.86093 17.3658 4.89589 17.4375 4.94569C17.5089 5.003 17.5664 5.07554 17.6057 5.15794C17.645 5.24034 17.665 5.33045 17.6644 5.4216C17.6878 5.83973 17.5389 6.42223 17.1759 6.98895L17.1721 6.13248Z" fill="white"/>
<path d="M17.1719 6.13281L17.1719 6.98933C17.0061 7.24807 16.8085 7.48538 16.5837 7.69567C16.5472 7.72985 16.4985 7.74816 16.4484 7.74667C16.3982 7.74523 16.3508 7.72406 16.3163 7.68782C16.282 7.65158 16.2635 7.60326 16.265 7.5535C16.2665 7.50375 16.2878 7.45661 16.3243 7.42242C16.711 7.06966 17.0024 6.62626 17.1719 6.13281Z" fill="white"/>
<path d="M15.4904 13.7406C15.1123 14.095 14.8643 14.4838 14.7509 14.9012C14.6924 15.1191 14.6695 15.3448 14.6828 15.57C14.6797 15.6401 14.7041 15.7088 14.7509 15.7614L14.7509 15.9326C14.7508 15.9788 14.7599 16.0247 14.7777 16.0674C14.7955 16.1102 14.8216 16.149 14.8545 16.1818C14.7373 16.1764 14.6243 16.1364 14.5301 16.0669C14.4588 16.0095 14.4014 15.9369 14.3622 15.8546C14.3229 15.7722 14.3027 15.6821 14.3032 15.591C14.2698 15.0326 14.427 14.4794 14.7494 14.0206C14.8888 13.8195 15.0497 13.634 15.2295 13.4674C15.266 13.433 15.3148 13.4145 15.3651 13.4158C15.4153 13.4172 15.463 13.4383 15.4976 13.4745C15.5322 13.5107 15.5509 13.5591 15.5495 13.6091C15.5482 13.6589 15.5269 13.7063 15.4904 13.7406Z" fill="white"/>
<path d="M17.1723 12.149C17.0566 12.3224 16.9296 12.4906 16.8003 12.6602L16.6876 12.8103C16.6575 12.8502 16.6128 12.8765 16.5631 12.8835C16.5135 12.8906 16.4631 12.8777 16.423 12.8479C16.3829 12.818 16.3563 12.7736 16.3492 12.7243C16.3421 12.675 16.3551 12.6249 16.3852 12.5851L16.4993 12.435C16.7776 12.0672 17.0287 11.7406 17.1731 11.3593C17.3134 10.9858 17.3531 10.5824 17.288 10.189C17.267 10.0236 17.2285 9.86081 17.1731 9.70339C16.9984 9.22217 16.6763 8.95272 16.212 8.56914C16.0207 8.41072 15.8044 8.23057 15.5723 8.01288C15.2646 7.72556 14.9883 7.40674 14.7481 7.06182C14.37 6.51532 14.1629 5.97786 14.1817 5.55673C14.1802 5.46211 14.1994 5.36829 14.2378 5.28172C14.2764 5.19516 14.3333 5.1179 14.4048 5.0553C14.5404 4.95095 14.7113 4.90255 14.882 4.92018C14.8402 4.95345 14.8064 4.99562 14.7833 5.04356C14.7601 5.09151 14.7481 5.144 14.7481 5.19717L14.7481 5.29551C14.7098 5.30236 14.674 5.31862 14.6437 5.3428C14.6148 5.37252 14.5923 5.40786 14.5777 5.44662C14.5631 5.48537 14.5568 5.5267 14.559 5.568C14.55 5.75791 14.6105 6.01389 14.7481 6.3089C14.9439 6.73079 15.2978 7.23145 15.8324 7.73515C16.0592 7.94531 16.268 8.12098 16.4547 8.27634C16.7153 8.47835 16.9558 8.70458 17.1731 8.95198C17.418 9.24844 17.589 9.60127 17.6623 10.135C17.784 11.023 17.5322 11.6138 17.1723 12.149Z" fill="white"/>
<path d="M17.4987 16.0179C17.4429 16.0758 17.375 16.1209 17.2998 16.1501C17.2246 16.1792 17.1438 16.1918 17.0632 16.1868C17.0977 16.1538 17.1251 16.1143 17.1438 16.0706C17.1625 16.0268 17.1721 15.9798 17.1721 15.9323L17.1721 15.7957C17.1885 15.7912 17.2034 15.7824 17.2152 15.7701C17.2394 15.7431 17.2749 15.6636 17.2454 15.4324C17.2278 15.2987 17.2025 15.1661 17.1698 15.0353C16.893 13.8853 16.1112 13.5339 16.0749 13.4956C15.9993 13.4408 15.2749 12.9019 14.8235 12.3974C14.7978 12.3682 14.7713 12.3382 14.7479 12.3059C14.2458 11.6956 13.7142 10.5433 14.7479 8.92793C14.8623 8.74946 14.9866 8.57728 15.1199 8.4122C15.1492 8.37434 15.1915 8.3485 15.2387 8.33947C15.286 8.33051 15.3349 8.33904 15.3763 8.36345C15.3985 8.37764 15.4175 8.39633 15.4319 8.41824C15.4464 8.44023 15.4561 8.46501 15.4603 8.49091C15.4645 8.51682 15.4632 8.54335 15.4564 8.56869C15.4496 8.5941 15.4375 8.61776 15.4208 8.63818C15.1469 8.96884 14.9204 9.33567 14.7479 9.7281C14.4174 10.511 14.5044 11.1416 14.7479 11.6265C14.8447 11.8166 14.9661 11.9933 15.1093 12.152C15.4579 12.5416 16.0318 12.9904 16.2322 13.1436C16.264 13.1681 16.2976 13.1902 16.3328 13.2096C16.6811 13.4118 16.9706 13.7001 17.1728 14.0467C17.4157 14.4575 17.5686 14.9146 17.6212 15.3881C17.6439 15.5712 17.6575 15.8392 17.4987 16.0179Z" fill="white"/>
<path d="M14.4045 5.90973L16.6095 5.90973" stroke="white" stroke-width="0.378075" stroke-linecap="round" stroke-linejoin="round"/>
<path d="M15.3788 9.79346L17.3599 9.79346" stroke="white" stroke-width="0.378075" stroke-linecap="round" stroke-linejoin="round"/>
<path d="M14.4792 11.3709L16.6154 11.3709" stroke="white" stroke-width="0.378075" stroke-linecap="round" stroke-linejoin="round"/>
<path d="M15.246 15.2578L17.3821 15.2578" stroke="white" stroke-width="0.378075" stroke-linecap="round" stroke-linejoin="round"/>
<path d="M27.129 16.5606C26.0529 16.5739 24.9874 16.349 24.0099 15.9023C23.0825 15.4732 22.2503 14.8651 21.5622 14.1134C20.8775 13.3692 20.3373 12.5057 19.969 11.5665C19.6003 10.6406 19.411 9.65401 19.4109 8.65843C19.4073 7.63764 19.6086 6.62632 20.003 5.68357C20.392 4.74838 20.9516 3.89254 21.6537 3.15912C22.353 2.42449 23.1868 1.82863 24.1104 1.40333C25.0781 0.964189 26.1316 0.742966 27.1955 0.75551C28.364 0.75551 29.415 0.982458 30.3487 1.43636C31.269 1.88042 32.0926 2.49939 32.7728 3.2582C33.4475 4.00553 33.98 4.86826 34.3442 5.80443C35.0808 7.68733 35.0727 9.77712 34.3214 11.6543C33.9465 12.5914 33.3938 13.4484 32.6934 14.1788C31.9955 14.9128 31.1606 15.5056 30.2352 15.924C29.3031 16.3489 28.2677 16.5611 27.129 16.5606ZM22.0295 8.65843C22.0264 9.38631 22.1454 10.1096 22.3819 10.7985C22.6081 11.463 22.9554 12.0805 23.4065 12.6204C23.8489 13.1504 24.4 13.5809 25.0231 13.883C25.6527 14.1903 26.3698 14.3439 27.1743 14.3439C27.994 14.3439 28.7227 14.1827 29.3604 13.8605C29.9881 13.5464 30.5397 13.1008 30.977 12.5543C31.4165 12.0065 31.7556 11.3863 31.9789 10.722C32.205 10.0572 32.3202 9.3601 32.32 8.65843C32.3234 7.93298 32.2001 7.21245 31.9555 6.52881C31.7195 5.86741 31.3647 5.25396 30.9082 4.71823C30.4601 4.18968 29.9059 3.75966 29.281 3.45562C28.624 3.14256 27.903 2.9848 27.1743 2.99472C26.3396 2.99472 25.6086 3.15561 24.9815 3.47739C24.3595 3.79105 23.8111 4.23153 23.3724 4.77002C22.9313 5.31384 22.5921 5.93195 22.3713 6.59487C22.1449 7.25966 22.0295 7.95671 22.0295 8.65843Z" fill="white"/>
</g>
<path d="M42.1077 12.8745C41.5341 12.8824 40.9641 12.7851 40.4276 12.5878C39.9437 12.4081 39.5017 12.1361 39.1279 11.7877C38.772 11.4555 38.4863 11.0589 38.2871 10.6203C38.0883 10.1879 37.9854 9.71961 37.9851 9.24605C37.9792 8.61045 38.1528 7.98544 38.4871 7.43915C38.8315 6.88289 39.3279 6.43032 39.9211 6.13163C40.5446 5.80702 41.272 5.64471 42.1032 5.64471C42.9138 5.64471 43.6205 5.80408 44.2233 6.12283C44.709 6.36861 45.124 6.72796 45.4309 7.16852C45.4482 7.19573 45.4586 7.22662 45.461 7.2585C45.4634 7.29038 45.458 7.32239 45.445 7.35184C45.432 7.38124 45.4121 7.40714 45.3866 7.4275C45.3612 7.4478 45.331 7.46181 45.2988 7.46848L44.0988 7.79334C44.0525 7.80648 44.0033 7.80579 43.9574 7.79141C43.9115 7.77703 43.8711 7.74963 43.8414 7.7127C43.6636 7.48074 43.4336 7.29138 43.1689 7.15899C42.8307 6.98999 42.4548 6.90462 42.0745 6.91041C41.6519 6.90493 41.2354 7.00792 40.8669 7.20887C40.5126 7.40328 40.219 7.68704 40.017 8.03022C39.8038 8.40085 39.6962 8.82005 39.7053 9.24455C39.697 9.66836 39.8069 10.0864 40.0231 10.4545C40.2314 10.8039 40.5301 11.0944 40.8895 11.2971C41.2533 11.5048 41.6684 11.6125 42.0904 11.6088C42.3595 11.6096 42.6269 11.5664 42.8813 11.4812C43.1272 11.4008 43.357 11.28 43.5606 11.1241C43.6895 11.0281 43.8023 10.9133 43.895 10.7838C43.9235 10.7429 43.9647 10.7118 44.0125 10.6949C44.0604 10.6781 44.1125 10.6763 44.1614 10.69L45.3426 11.0126C45.3742 11.0191 45.4037 11.0327 45.4288 11.0524C45.4539 11.0721 45.4738 11.0973 45.487 11.1259C45.5002 11.1544 45.5062 11.1857 45.5046 11.217C45.503 11.2483 45.4938 11.2787 45.4778 11.3059C45.3066 11.5685 45.093 11.8025 44.8453 11.9989C44.4883 12.2805 44.082 12.4974 43.6459 12.6391C43.1504 12.8007 42.6304 12.8803 42.1077 12.8745Z" fill="white"/>
<path d="M53.9007 12.7404L52.7029 12.7404C52.6444 12.743 52.5872 12.7229 52.5438 12.6845C52.5005 12.6461 52.4747 12.5926 52.472 12.5358L52.472 8.8406C52.472 8.21042 52.3376 7.74015 52.0689 7.42968C51.8002 7.11926 51.4276 6.96402 50.9511 6.96402C50.6323 6.96769 50.3183 7.04005 50.0318 7.17599C49.7236 7.31653 49.4451 7.51175 49.2106 7.75161C48.9815 7.98407 48.8019 8.25818 48.6823 8.55826C48.673 8.58168 48.6684 8.60652 48.6687 8.63162L48.6687 12.5387C48.6659 12.5956 48.64 12.6491 48.5968 12.6875C48.5535 12.7258 48.4963 12.7459 48.4377 12.7433L47.2301 12.7433C47.1715 12.7459 47.1143 12.7258 47.071 12.6875C47.0277 12.6491 47.0019 12.5956 46.9991 12.5387L46.9991 3.11705C47.0019 3.06018 47.0277 3.00668 47.071 2.96832C47.1143 2.92996 47.1715 2.90986 47.2301 2.91245L48.4377 2.91245C48.4963 2.90986 48.5535 2.92996 48.5968 2.96832C48.64 3.00668 48.6659 3.06018 48.6687 3.11705L48.6687 6.51598C48.6687 6.70516 48.9321 6.79172 49.074 6.64943C49.3192 6.40545 49.6034 6.20164 49.9155 6.04592C50.441 5.77932 51.0255 5.64186 51.6183 5.64553C52.125 5.64553 52.5378 5.72106 52.8569 5.87213C53.1632 6.00972 53.4271 6.22286 53.6222 6.49032C53.8136 6.76208 53.948 7.06782 54.0177 7.39007C54.0961 7.74974 54.1343 8.11658 54.1317 8.48422L54.1317 12.5343C54.1305 12.5626 54.1236 12.5904 54.1114 12.6161C54.0991 12.6418 54.0818 12.6649 54.0603 12.684C54.0388 12.7032 54.0137 12.718 53.9863 12.7276C53.9589 12.7373 53.9298 12.7416 53.9007 12.7404Z" fill="white"/>
<path d="M59.6799 12.8746C59.1036 12.8835 58.5309 12.786 57.9922 12.5871C57.5148 12.4065 57.0772 12.1389 56.703 11.7988C56.3454 11.4747 56.0586 11.0838 55.8599 10.6497C55.661 10.2179 55.5588 9.74995 55.5604 9.27688C55.5537 8.63394 55.7328 8.00208 56.0773 7.45317C56.4299 6.89411 56.9314 6.43806 57.5288 6.13317C58.1522 5.80464 58.8692 5.64038 59.6799 5.64038C60.5207 5.64038 61.2427 5.80709 61.8461 6.1405C62.4252 6.4508 62.9097 6.90345 63.2522 7.45317C63.5828 7.98041 63.7566 8.58624 63.7541 9.20359C63.7541 9.30372 63.7491 9.40385 63.7391 9.50348L63.7348 9.54091C63.7254 9.59253 63.6974 9.63936 63.6557 9.6728C63.6146 9.7063 63.5623 9.72423 63.5081 9.72348L57.5922 9.72348C57.5602 9.72199 57.5282 9.72741 57.4986 9.7393C57.4691 9.75113 57.4425 9.76919 57.4209 9.79217C57.3993 9.81508 57.3831 9.84242 57.3736 9.87212C57.3641 9.90183 57.3614 9.93321 57.3658 9.96403C57.4277 10.2669 57.5538 10.5539 57.7363 10.8066C57.9591 11.1123 58.257 11.3591 58.6028 11.5245C58.9514 11.6959 59.3367 11.7846 59.7274 11.7834C60.173 11.7863 60.613 11.6857 61.0105 11.49C61.3123 11.3541 61.5671 11.136 61.7441 10.8623C61.7715 10.8189 61.8126 10.7852 61.8613 10.7663C61.91 10.7474 61.9637 10.7443 62.0144 10.7575L62.9825 11.0039C63.0155 11.0102 63.0461 11.0243 63.0722 11.0448C63.0984 11.0653 63.1189 11.0916 63.132 11.1215C63.1451 11.1513 63.1507 11.1839 63.1476 11.2164C63.1451 11.2487 63.1345 11.28 63.1164 11.3075C62.9383 11.5683 62.7173 11.799 62.462 11.9902C62.09 12.2729 61.6708 12.4915 61.2226 12.6362C60.7255 12.7982 60.2042 12.8787 59.6799 12.8746ZM57.5521 8.75481L61.8355 8.75481C61.8672 8.75618 61.8988 8.75082 61.9282 8.73918C61.9575 8.72747 61.9839 8.70966 62.0055 8.68706C62.027 8.66445 62.0433 8.63749 62.053 8.60816C62.0628 8.57883 62.0658 8.54776 62.0619 8.51718C62.006 8.22302 61.8858 7.94399 61.7094 7.69883C61.4896 7.39769 61.1956 7.1549 60.8543 6.99262C60.4927 6.82318 60.0964 6.73519 59.6949 6.73519C59.2935 6.73519 58.8972 6.82318 58.5356 6.99262C58.1948 7.1572 57.9001 7.39949 57.6767 7.69883C57.496 7.94274 57.376 8.22414 57.3265 8.52086C57.3231 8.55112 57.3265 8.58176 57.3364 8.61065C57.3463 8.63954 57.3625 8.66601 57.384 8.68824C57.4054 8.71041 57.4315 8.72791 57.4606 8.73936C57.4896 8.75088 57.5208 8.75611 57.5521 8.75481Z" fill="white"/>
<path d="M70.5866 12.65L68.2515 9.71671C68.2309 9.69236 68.2054 9.67225 68.1767 9.65749C68.1481 9.64267 68.1169 9.63358 68.0846 9.63065C68.0528 9.62772 68.0198 9.63102 67.9893 9.64037C67.9582 9.64977 67.9295 9.66496 67.9046 9.6852L66.8647 10.5476C66.8423 10.5653 66.8236 10.5876 66.8105 10.6129C66.7974 10.6382 66.7906 10.666 66.7893 10.6942L66.7893 12.5275C66.7862 12.5844 66.7607 12.6379 66.7171 12.6762C66.6741 12.7146 66.6169 12.7347 66.5583 12.7321L65.3509 12.7321C65.2924 12.7347 65.2351 12.7146 65.1915 12.6762C65.1485 12.6379 65.1224 12.5844 65.1199 12.5275L65.1199 3.11686C65.1224 3.05998 65.1485 3.00649 65.1915 2.96813C65.2351 2.92976 65.2924 2.90967 65.3509 2.91226L66.5583 2.91226C66.5876 2.91027 66.6175 2.91403 66.6449 2.92329C66.6729 2.93256 66.6991 2.94715 66.7208 2.96621C66.7426 2.98528 66.7607 3.00842 66.7732 3.0343C66.7862 3.06016 66.7931 3.08824 66.7943 3.11686L66.7943 8.61677C66.7943 8.80084 67.0471 8.89175 67.1916 8.75899L70.4054 5.81253C70.4508 5.77204 70.51 5.74976 70.5716 5.7502L71.7373 5.7502C71.9391 5.7502 72.0437 5.96287 71.9067 6.09413L69.3237 8.55954C69.2883 8.59242 69.2665 8.63706 69.2627 8.6847C69.2596 8.73234 69.2746 8.77948 69.3051 8.81696L72.1907 12.4146C72.299 12.5503 72.1907 12.738 72.002 12.738L70.7753 12.738C70.7391 12.7382 70.703 12.7303 70.6707 12.7151C70.6376 12.6998 70.609 12.6776 70.5866 12.65Z" fill="white"/>
</g>
<defs>
<clipPath id="clip0_4_620">
<rect width="72.2336" height="16.1903" fill="white" transform="translate(0 0.420898)"/>
</clipPath>
</defs>
</svg>
