<svg width="116" height="26" viewBox="0 0 116 26" fill="none" xmlns="http://www.w3.org/2000/svg">
<g clip-path="url(#clip0_31_79)">
<mask id="mask0_31_79" style="mask-type:luminance" maskUnits="userSpaceOnUse" x="0" y="0" width="57" height="26">
<path d="M57 0H0V26H57V0Z" fill="white"/>
</mask>
<g mask="url(#mask0_31_79)">
<path d="M20.0373 19.0488C20.0373 20.3845 19.6835 21.5325 18.976 22.4929C18.2577 23.4621 17.2942 24.2256 16.1831 24.7062C14.9553 25.2364 13.6276 25.5003 12.2888 25.4801H0.862206C0.709875 25.4801 0.563784 25.42 0.456069 25.3131C0.348355 25.2061 0.287842 25.0611 0.287842 24.9099V1.09802C0.287842 0.9468 0.348355 0.801768 0.456069 0.694836C0.563784 0.587905 0.709875 0.527832 0.862206 0.527832H13.2481C14.4284 0.527832 15.4492 0.838444 16.3106 1.45967C17.1638 2.07571 17.8437 2.89877 18.285 3.85014C18.7403 4.79989 18.9763 5.83854 18.976 6.89036C18.9746 8.08946 18.6506 9.26642 18.0373 10.2995C17.6251 11.0207 17.0579 11.643 16.3761 12.1221C16.2947 12.1811 16.2301 12.2601 16.1889 12.3514C16.1476 12.4427 16.1311 12.5432 16.1409 12.6427C16.1507 12.7423 16.1865 12.8377 16.2448 12.9193C16.3031 13.0009 16.3819 13.0661 16.4733 13.1082C17.388 13.543 18.1805 14.1952 18.7804 15.0069C19.6183 16.1312 20.0373 17.4785 20.0373 19.0488ZM4.28411 4.47217V10.7467C4.28411 10.8979 4.34462 11.043 4.45234 11.1499C4.56005 11.2568 4.70614 11.3169 4.85847 11.3169H11.5371C12.1624 11.3265 12.7771 11.1556 13.3064 10.8251C13.8288 10.4987 14.2585 10.0451 14.5547 9.50746C14.8677 8.93006 15.0262 8.28254 15.0149 7.62691C15.029 6.96576 14.8894 6.31029 14.6069 5.7114C14.35 5.17747 13.9527 4.72226 13.4569 4.39381C12.9532 4.06341 12.3606 3.89196 11.7569 3.90197H4.85847C4.78305 3.90197 4.70836 3.91672 4.63867 3.94538C4.56899 3.97403 4.50567 4.01603 4.45234 4.06898C4.399 4.12193 4.35669 4.18478 4.32783 4.25396C4.29897 4.32314 4.28411 4.39729 4.28411 4.47217ZM16.0021 18.3159C16.0085 17.6455 15.8505 16.9835 15.5419 16.3871C15.256 15.8269 14.8367 15.3444 14.3203 14.9816C13.7947 14.6245 13.1695 14.4403 12.5329 14.4548H4.85847C4.70614 14.4548 4.56005 14.5148 4.45234 14.6218C4.34462 14.7287 4.28411 14.8737 4.28411 15.0249V21.5454C4.28411 21.6203 4.29897 21.6944 4.32783 21.7636C4.35669 21.8328 4.399 21.8956 4.45234 21.9486C4.50567 22.0015 4.56899 22.0435 4.63867 22.0722C4.70836 22.1008 4.78305 22.1156 4.85847 22.1156H12.2851C12.9569 22.1265 13.6165 21.9367 14.1782 21.5707C14.7237 21.2171 15.1786 20.742 15.5067 20.1832C15.8386 19.6166 16.0098 18.9713 16.0021 18.3159Z" fill="#00B8CC"/>
<path d="M26.4949 19.2923C26.9418 18.7016 27.3449 18.1773 27.5769 17.5649V14.9056C27.2964 14.1329 26.7791 13.7001 26.0335 13.0841C25.7263 12.8297 25.379 12.5404 25.0062 12.1908C24.5121 11.7294 24.0684 11.2174 23.6826 10.6635V13.6567C23.8692 13.3646 24.0719 13.0829 24.2898 12.8129C24.3413 12.7547 24.4135 12.7185 24.4912 12.7118C24.569 12.7051 24.6463 12.7283 24.7073 12.7767C24.7682 12.8251 24.808 12.8949 24.8185 12.9717C24.8289 13.0485 24.8092 13.1263 24.7633 13.189C24.3233 13.72 23.9596 14.3091 23.6826 14.9393V17.9904C23.838 18.2957 24.0332 18.5794 24.2631 18.8342C24.8933 19.5394 25.9849 20.3664 26.1586 20.4966C26.3262 20.5786 27.0147 20.9559 27.5769 21.8769V18.8342C27.3911 19.1127 27.1871 19.3827 26.9794 19.6552L26.7985 19.8963C26.7746 19.9279 26.7446 19.9546 26.7103 19.9748C26.676 19.9949 26.6381 20.0082 26.5986 20.0138C26.5591 20.0194 26.5189 20.0172 26.4803 20.0074C26.4417 19.9976 26.4054 19.9803 26.3735 19.9565C26.3416 19.9328 26.3147 19.903 26.2944 19.869C26.2741 19.8349 26.2608 19.7972 26.2551 19.7581C26.2495 19.7189 26.2517 19.679 26.2616 19.6407C26.2715 19.6023 26.2889 19.5663 26.3128 19.5346L26.4949 19.2923ZM25.8769 21.0294C25.8565 21.0202 25.837 21.0093 25.8186 20.9969C25.7664 20.9583 24.5338 20.0433 23.8089 19.2333C23.7676 19.1862 23.7251 19.138 23.6875 19.0862V21.8395C23.9113 21.5165 24.1698 21.2186 24.4586 20.9511C24.5172 20.8961 24.5954 20.8665 24.676 20.8687C24.7566 20.871 24.833 20.9049 24.8884 20.9631C24.9438 21.0213 24.9737 21.099 24.9714 21.179C24.9691 21.259 24.9349 21.3349 24.8763 21.3899C24.2691 21.9588 23.8708 22.5833 23.6887 23.2535V24.9099C23.6893 25.0609 23.75 25.2056 23.8576 25.3124C23.9652 25.4191 24.1109 25.4794 24.2631 25.4801H27.0086C27.1608 25.4797 27.3067 25.4196 27.4144 25.3127C27.522 25.2058 27.5826 25.061 27.583 24.9099V23.4693C27.1239 21.6105 25.9327 21.0547 25.8769 21.0294ZM27.1422 7.11697C27.0966 7.10474 27.0497 7.09865 27.0025 7.09888H24.257C24.1046 7.09888 23.9586 7.15896 23.8508 7.26589C23.7431 7.37282 23.6826 7.51785 23.6826 7.66908V9.46283C23.9971 10.1403 24.5654 10.9444 25.4239 11.7532C25.7882 12.0908 26.1234 12.3729 26.4233 12.6224C26.8417 12.9468 27.228 13.3101 27.5769 13.7073V10.5478C27.3106 10.9633 26.9932 11.3444 26.6322 11.6821C26.6031 11.7093 26.569 11.7305 26.5317 11.7445C26.4944 11.7586 26.4547 11.7652 26.4149 11.7641C26.375 11.7629 26.3358 11.7539 26.2994 11.7377C26.263 11.7215 26.2302 11.6983 26.2029 11.6695C26.1755 11.6407 26.1542 11.6068 26.14 11.5698C26.1259 11.5328 26.1192 11.4933 26.1204 11.4538C26.1216 11.4142 26.1306 11.3753 26.1469 11.3391C26.1633 11.303 26.1866 11.2705 26.2156 11.2433C26.8366 10.6768 27.3046 9.96474 27.5769 9.17231V7.66908C27.5769 7.54209 27.5341 7.41875 27.4553 7.3187C27.3765 7.21865 27.2663 7.14764 27.1422 7.11697Z" fill="#BEBEBE"/>
<path d="M26.9382 0.527832H24.3213C23.9686 0.527832 23.6826 0.811721 23.6826 1.16192V3.92608C23.6826 4.27628 23.9686 4.56017 24.3213 4.56017H26.9382C27.2909 4.56017 27.5769 4.27628 27.5769 3.92608V1.16192C27.5769 0.811721 27.2909 0.527832 26.9382 0.527832Z" fill="#00B8CC"/>
<path d="M27.5768 9.17229C27.7022 8.8165 27.7626 8.44134 27.7553 8.06446C27.7593 8.00568 27.7505 7.94674 27.7295 7.89162C27.7086 7.83651 27.6759 7.7865 27.6338 7.745C27.6171 7.73224 27.5987 7.72171 27.5792 7.71366V7.66906C27.5792 7.54207 27.5364 7.41873 27.4576 7.31868C27.3788 7.21863 27.2686 7.14762 27.1445 7.11695C27.1632 7.10855 27.1827 7.10208 27.2027 7.09766C27.3407 7.07108 27.4827 7.07233 27.6201 7.10132C27.7576 7.13032 27.8878 7.18646 28.003 7.26643C28.1176 7.35846 28.2099 7.47496 28.273 7.60728C28.3361 7.7396 28.3683 7.88432 28.3673 8.0307C28.4049 8.70216 28.1657 9.63761 27.5828 10.5477L27.5768 9.17229Z" fill="#00B8CC"/>
<path d="M27.577 9.17261V10.5481C27.3107 10.9636 26.9934 11.3447 26.6323 11.6824C26.5737 11.7373 26.4955 11.7667 26.415 11.7643C26.3345 11.762 26.2583 11.728 26.203 11.6698C26.1478 11.6116 26.1181 11.534 26.1205 11.4541C26.1229 11.3742 26.1572 11.2985 26.2158 11.2436C26.8368 10.6771 27.3048 9.96504 27.577 9.17261Z" fill="#00B8CC"/>
<path d="M24.8762 21.3901C24.269 21.9591 23.8707 22.5835 23.6886 23.2538C23.5947 23.6037 23.5578 23.9663 23.5793 24.3278C23.5742 24.4405 23.6134 24.5507 23.6886 24.6352V24.9101C23.6885 24.9844 23.7031 25.058 23.7316 25.1266C23.7602 25.1953 23.8021 25.2577 23.8549 25.3103C23.6667 25.3017 23.4853 25.2374 23.334 25.1259C23.2195 25.0337 23.1274 24.9171 23.0643 24.7849C23.0013 24.6526 22.9689 24.5079 22.9697 24.3616C22.916 23.4649 23.1684 22.5764 23.6862 21.8397C23.91 21.5167 24.1685 21.2188 24.4572 20.9513C24.5158 20.8961 24.5941 20.8664 24.6749 20.8685C24.7556 20.8707 24.8322 20.9046 24.8877 20.9627C24.9433 21.0209 24.9733 21.0986 24.9711 21.1788C24.9689 21.2589 24.9348 21.3349 24.8762 21.3901Z" fill="#00B8CC"/>
<path d="M27.577 18.8342C27.3912 19.1127 27.1872 19.3827 26.9795 19.6551L26.7986 19.8962C26.7503 19.9602 26.6784 20.0025 26.5987 20.0138C26.519 20.0251 26.438 20.0045 26.3736 19.9565C26.3092 19.9086 26.2666 19.8372 26.2552 19.758C26.2438 19.6789 26.2646 19.5985 26.3129 19.5346L26.4962 19.2935C26.9431 18.7028 27.3463 18.1784 27.5782 17.5661C27.8036 16.9663 27.8673 16.3184 27.7628 15.6867C27.729 15.421 27.6672 15.1596 27.5782 14.9068C27.2977 14.134 26.7804 13.7013 26.0348 13.0853C25.7276 12.8309 25.3803 12.5416 25.0075 12.192C24.5134 11.7306 24.0697 11.2186 23.6839 10.6647C23.0768 9.78708 22.7441 8.92396 22.7744 8.24768C22.7719 8.09573 22.8027 7.94505 22.8645 7.80604C22.9264 7.66702 23.0178 7.54296 23.1326 7.44242C23.3504 7.27485 23.6248 7.19712 23.8989 7.22544C23.8318 7.27887 23.7776 7.34659 23.7404 7.42358C23.7032 7.50057 23.6839 7.58487 23.6839 7.67026V7.82818C23.6225 7.83918 23.5649 7.86529 23.5163 7.90412C23.4698 7.95185 23.4337 8.00861 23.4103 8.07084C23.3869 8.13308 23.3767 8.19944 23.3803 8.26577C23.3658 8.57075 23.4629 8.98182 23.6839 9.45558C23.9984 10.1331 24.5667 10.9371 25.4252 11.746C25.7895 12.0835 26.1247 12.3656 26.4246 12.6151C26.843 12.9395 27.2293 13.3028 27.5782 13.7001C27.9716 14.1762 28.2461 14.7428 28.3638 15.5999C28.5593 17.026 28.155 17.9747 27.577 18.8342Z" fill="#00B8CC"/>
<path d="M28.1014 25.0473C28.0117 25.1403 27.9027 25.2127 27.7819 25.2596C27.6611 25.3064 27.5314 25.3265 27.402 25.3185C27.4573 25.2656 27.5014 25.2021 27.5314 25.1319C27.5614 25.0616 27.5769 24.9861 27.5768 24.9098V24.6904C27.6032 24.6833 27.6271 24.6691 27.646 24.6494C27.6849 24.606 27.742 24.4783 27.6946 24.107C27.6663 23.8923 27.6257 23.6794 27.5732 23.4693C27.1287 21.6225 25.8732 21.0583 25.8149 20.9968C25.6934 20.9088 24.5301 20.0433 23.8052 19.2332C23.7639 19.1862 23.7214 19.138 23.6838 19.0862C22.8775 18.1061 22.0238 16.2557 23.6838 13.6615C23.8676 13.3749 24.0671 13.0984 24.2812 12.8333C24.3283 12.7725 24.3962 12.731 24.472 12.7165C24.5479 12.7021 24.6265 12.7158 24.6929 12.755C24.7286 12.7778 24.7591 12.8078 24.7823 12.843C24.8056 12.8783 24.8211 12.9181 24.8279 12.9597C24.8346 13.0013 24.8325 13.0439 24.8216 13.0846C24.8106 13.1254 24.7912 13.1634 24.7645 13.1962C24.3245 13.7272 23.9608 14.3163 23.6838 14.9465C23.1531 16.2038 23.2928 17.2164 23.6838 17.9952C23.8392 18.3005 24.0343 18.5842 24.2642 18.839C24.824 19.4647 25.7457 20.1855 26.0674 20.4315C26.1185 20.4708 26.1725 20.5063 26.229 20.5375C26.7883 20.8621 27.2532 21.3252 27.578 21.8817C27.9681 22.5414 28.2135 23.2755 28.2981 24.0359C28.3345 24.33 28.3564 24.7603 28.1014 25.0473Z" fill="#00B8CC"/>
<path d="M23.1326 8.81445H26.6735" stroke="#00B8CC" stroke-width="0.607151" stroke-linecap="round" stroke-linejoin="round"/>
<path d="M24.6965 15.0515H27.8779" stroke="#00B8CC" stroke-width="0.607151" stroke-linecap="round" stroke-linejoin="round"/>
<path d="M23.2527 17.5845H26.6831" stroke="#00B8CC" stroke-width="0.607151" stroke-linecap="round" stroke-linejoin="round"/>
<path d="M24.4839 23.8264H27.9143" stroke="#00B8CC" stroke-width="0.607151" stroke-linecap="round" stroke-linejoin="round"/>
<path d="M43.5668 25.9186C41.8387 25.94 40.1276 25.5788 38.5578 24.8614C37.0685 24.1724 35.7322 23.1958 34.6271 21.9887C33.5275 20.7936 32.6601 19.4069 32.0686 17.8985C31.4765 16.4117 31.1725 14.8273 31.1724 13.2285C31.1666 11.5892 31.4898 9.96513 32.1232 8.45117C32.7479 6.94934 33.6466 5.57495 34.774 4.39714C35.8971 3.2174 37.236 2.26052 38.7193 1.57752C40.2733 0.872305 41.9651 0.517044 43.6736 0.537188C45.5501 0.537188 47.238 0.901644 48.7373 1.63056C50.2152 2.34368 51.5379 3.33768 52.6303 4.55626C53.7138 5.75639 54.5688 7.14186 55.1537 8.64525C56.3366 11.669 56.3236 15.025 55.1172 18.0396C54.515 19.5445 53.6275 20.9207 52.5028 22.0936C51.3819 23.2724 50.0412 24.2243 48.5551 24.8963C47.0583 25.5786 45.3955 25.9194 43.5668 25.9186ZM35.3775 13.2285C35.3725 14.3974 35.5637 15.5589 35.9434 16.6653C36.3068 17.7323 36.8645 18.724 37.5888 19.591C38.2993 20.4422 39.1843 21.1335 40.185 21.6186C41.1961 22.1121 42.3476 22.3588 43.6396 22.3588C44.9559 22.3588 46.1261 22.1 47.1502 21.5825C48.1583 21.0781 49.0441 20.3625 49.7464 19.4849C50.4521 18.6052 50.9967 17.6092 51.3553 16.5424C51.7184 15.4747 51.9034 14.3553 51.903 13.2285C51.9085 12.0635 51.7105 10.9064 51.3177 9.80854C50.9387 8.74639 50.3689 7.76125 49.6359 6.90092C48.9162 6.05212 48.0262 5.36156 47.0227 4.8733C45.9677 4.37055 44.8098 4.11721 43.6396 4.13314C42.2991 4.13314 41.1252 4.39151 40.1182 4.90826C39.1193 5.41196 38.2387 6.11933 37.5341 6.9841C36.8257 7.85742 36.2811 8.85004 35.9264 9.91462C35.5629 10.9822 35.3775 12.1016 35.3775 13.2285Z" fill="#00B8CC"/>
</g>
<path d="M67.6206 19.9992C66.6995 20.0119 65.7841 19.8557 64.9225 19.5388C64.1455 19.2503 63.4357 18.8134 62.8353 18.254C62.2638 17.7205 61.8051 17.0836 61.4851 16.3792C61.1658 15.6848 61.0006 14.9328 61.0002 14.1723C60.9906 13.1516 61.2694 12.1479 61.8063 11.2706C62.3594 10.3773 63.1566 9.65053 64.1092 9.17086C65.1104 8.64956 66.2785 8.38892 67.6134 8.38892C68.9151 8.38892 70.0501 8.64485 71.0181 9.15673C71.798 9.55142 72.4645 10.1285 72.9574 10.836C72.9852 10.8797 73.0018 10.9293 73.0057 10.9805C73.0096 11.0317 73.0008 11.0831 72.98 11.1304C72.9592 11.1776 72.9271 11.2192 72.8862 11.2519C72.8454 11.2845 72.797 11.307 72.7453 11.3177L70.8181 11.8394C70.7438 11.8605 70.6647 11.8594 70.591 11.8363C70.5173 11.8132 70.4524 11.7692 70.4048 11.7099C70.1193 11.3374 69.7499 11.0333 69.3248 10.8207C68.7817 10.5493 68.178 10.4122 67.5673 10.4215C66.8887 10.4127 66.2198 10.5781 65.628 10.9008C65.0591 11.213 64.5876 11.6687 64.2632 12.2198C63.9208 12.815 63.748 13.4882 63.7626 14.1699C63.7493 14.8505 63.9257 15.5218 64.2729 16.113C64.6075 16.6741 65.0872 17.1405 65.6643 17.4661C66.2486 17.7997 66.9152 17.9726 67.5928 17.9666C68.025 17.9679 68.4544 17.8986 68.863 17.7617C69.2578 17.6327 69.6268 17.4387 69.9539 17.1882C70.1609 17.0341 70.342 16.8498 70.4909 16.6418C70.5367 16.5761 70.6028 16.5261 70.6796 16.499C70.7565 16.472 70.8401 16.4692 70.9187 16.4911L72.8156 17.0092C72.8663 17.0196 72.9137 17.0415 72.954 17.0731C72.9943 17.1047 73.0263 17.1452 73.0475 17.1911C73.0687 17.237 73.0783 17.2872 73.0757 17.3374C73.0731 17.3877 73.0584 17.4366 73.0326 17.4803C72.7578 17.9019 72.4148 18.2777 72.0169 18.5931C71.4436 19.0454 70.7912 19.3937 70.0909 19.6212C69.2951 19.8808 68.46 20.0086 67.6206 19.9992Z" fill="#BEBEBE"/>
<path d="M86.5593 19.7838H84.6358C84.5418 19.7879 84.4499 19.7557 84.3803 19.6941C84.3108 19.6324 84.2693 19.5465 84.2649 19.4552V13.5211C84.2649 12.5091 84.0491 11.7539 83.6176 11.2553C83.1861 10.7568 82.5877 10.5075 81.8225 10.5075C81.3106 10.5134 80.8063 10.6296 80.3462 10.8479C79.8513 11.0736 79.404 11.3871 79.0275 11.7723C78.6596 12.1456 78.3712 12.5858 78.179 13.0677C78.1641 13.1053 78.1567 13.1452 78.1572 13.1855V19.4599C78.1528 19.5513 78.1112 19.6372 78.0417 19.6988C77.9722 19.7604 77.8803 19.7926 77.7863 19.7885H75.847C75.7529 19.7926 75.6611 19.7604 75.5915 19.6988C75.522 19.6372 75.4805 19.5513 75.4761 19.4599V4.32965C75.4805 4.23832 75.522 4.15241 75.5915 4.09081C75.6611 4.0292 75.7529 3.99693 75.847 4.00109H77.7863C77.8803 3.99693 77.9722 4.0292 78.0417 4.09081C78.1112 4.15241 78.1528 4.23832 78.1572 4.32965V9.788C78.1572 10.0918 78.5802 10.2308 78.8081 10.0023C79.2018 9.6105 79.6582 9.2832 80.1595 9.03313C81.0033 8.605 81.9421 8.38424 82.894 8.39014C83.7077 8.39014 84.3707 8.51144 84.883 8.75403C85.3749 8.975 85.7987 9.31727 86.1121 9.74678C86.4195 10.1832 86.6353 10.6742 86.7472 11.1917C86.8731 11.7693 86.9345 12.3584 86.9302 12.9488V19.4529C86.9284 19.4983 86.9173 19.5429 86.8976 19.5842C86.8779 19.6254 86.8501 19.6625 86.8156 19.6932C86.7811 19.724 86.7407 19.7478 86.6968 19.7633C86.6528 19.7789 86.6061 19.7858 86.5593 19.7838Z" fill="#BEBEBE"/>
<path d="M95.8402 19.9992C94.9148 20.0136 93.995 19.857 93.1299 19.5376C92.3632 19.2475 91.6606 18.8178 91.0597 18.2716C90.4854 17.7511 90.0249 17.1235 89.7058 16.4263C89.3863 15.7329 89.2222 14.9814 89.2247 14.2217C89.214 13.1892 89.5017 12.1745 90.0549 11.293C90.6211 10.3952 91.4264 9.66283 92.3858 9.17321C93.3869 8.64563 94.5384 8.38184 95.8402 8.38184C97.1905 8.38184 98.35 8.64955 99.3189 9.18498C100.249 9.6833 101.027 10.4102 101.577 11.293C102.108 12.1397 102.387 13.1126 102.383 14.104C102.383 14.2648 102.375 14.4256 102.359 14.5856L102.352 14.6457C102.337 14.7286 102.292 14.8038 102.225 14.8575C102.159 14.9113 102.075 14.9401 101.988 14.9389H92.4876C92.4362 14.9365 92.3849 14.9452 92.3374 14.9643C92.2899 14.9833 92.2472 15.0123 92.2125 15.0492C92.1778 15.086 92.1518 15.1299 92.1365 15.1776C92.1212 15.2253 92.117 15.2757 92.124 15.3252C92.2234 15.8115 92.426 16.2724 92.7191 16.6783C93.0769 17.1692 93.5552 17.5655 94.1106 17.8312C94.6703 18.1064 95.2892 18.2488 95.9166 18.2469C96.6322 18.2515 97.3386 18.09 97.977 17.7758C98.4617 17.5575 98.8709 17.2073 99.1551 16.7678C99.1991 16.698 99.2652 16.6439 99.3434 16.6135C99.4216 16.5832 99.5078 16.5782 99.5892 16.5994L101.144 16.9951C101.197 17.0053 101.246 17.0278 101.288 17.0608C101.33 17.0937 101.363 17.1359 101.384 17.1839C101.405 17.2319 101.414 17.2842 101.409 17.3363C101.405 17.3883 101.388 17.4385 101.359 17.4826C101.073 17.9015 100.718 18.2719 100.308 18.579C99.7106 19.033 99.0374 19.384 98.3177 19.6165C97.5194 19.8766 96.6822 20.0059 95.8402 19.9992ZM92.4233 13.3833H99.3019C99.3528 13.3855 99.4036 13.3769 99.4508 13.3582C99.4979 13.3394 99.5402 13.3108 99.5749 13.2745C99.6095 13.2382 99.6356 13.1949 99.6512 13.1478C99.6669 13.1007 99.6717 13.0508 99.6654 13.0017C99.5757 12.5293 99.3827 12.0812 99.0995 11.6875C98.7464 11.2039 98.2742 10.814 97.7261 10.5534C97.1454 10.2813 96.5091 10.14 95.8644 10.14C95.2198 10.14 94.5834 10.2813 94.0027 10.5534C93.4554 10.8177 92.9821 11.2068 92.6233 11.6875C92.3331 12.0792 92.1405 12.5311 92.0609 13.0076C92.0555 13.0562 92.0608 13.1054 92.0767 13.1518C92.0927 13.1982 92.1187 13.2407 92.1532 13.2764C92.1876 13.312 92.2296 13.3401 92.2763 13.3585C92.3229 13.377 92.373 13.3854 92.4233 13.3833Z" fill="#BEBEBE"/>
<path d="M113.355 19.6387L109.605 14.9281C109.572 14.889 109.531 14.8567 109.485 14.833C109.439 14.8092 109.389 14.7946 109.337 14.7899C109.286 14.7852 109.233 14.7905 109.184 14.8055C109.134 14.8206 109.088 14.845 109.048 14.8775L107.378 16.2624C107.342 16.2909 107.312 16.3267 107.291 16.3673C107.27 16.408 107.259 16.4525 107.257 16.4979V19.442C107.252 19.5333 107.211 19.6192 107.141 19.6808C107.072 19.7424 106.98 19.7747 106.886 19.7706H104.947C104.853 19.7747 104.761 19.7424 104.691 19.6808C104.622 19.6192 104.58 19.5333 104.576 19.442V4.32939C104.58 4.23806 104.622 4.15215 104.691 4.09055C104.761 4.02894 104.853 3.99667 104.947 4.00083H106.886C106.933 3.99764 106.981 4.00367 107.025 4.01855C107.07 4.03343 107.112 4.05686 107.147 4.08747C107.182 4.11809 107.211 4.15526 107.231 4.19681C107.252 4.23835 107.263 4.28343 107.265 4.32939V13.1617C107.265 13.4573 107.671 13.6033 107.903 13.3901L113.064 8.65838C113.137 8.59335 113.232 8.55757 113.331 8.55828H115.203C115.527 8.55828 115.695 8.8998 115.475 9.1106L111.327 13.0698C111.27 13.1226 111.235 13.1943 111.229 13.2708C111.224 13.3473 111.248 13.423 111.297 13.4832L115.931 19.2606C116.105 19.4785 115.931 19.78 115.628 19.78H113.658C113.6 19.7803 113.542 19.7677 113.49 19.7432C113.437 19.7187 113.391 19.683 113.355 19.6387Z" fill="#BEBEBE"/>
</g>
<defs>
<clipPath id="clip0_31_79">
<rect width="116" height="26" fill="white"/>
</clipPath>
</defs>
</svg>
