<svg width="1080" height="323" viewBox="0 0 1080 323" fill="none" xmlns="http://www.w3.org/2000/svg">
<rect width="1080" height="323" fill="url(#paint0_linear_13_5)"/>
<path d="M442.813 57.6047C435.348 50.1213 426.484 44.185 416.729 40.1348C406.974 36.0846 396.518 34 385.958 34C375.399 34 364.943 36.0846 355.187 40.1348C345.432 44.185 336.569 50.1213 329.104 57.6047L313.611 73.1281L298.119 57.6047C283.04 42.4959 262.589 34.0078 241.265 34.0078C219.94 34.0078 199.489 42.4959 184.41 57.6047C169.332 72.7136 160.861 93.2056 160.861 114.573C160.861 135.94 169.332 156.432 184.41 171.541L199.903 187.064L301.013 288.377C307.967 295.344 319.256 295.344 326.21 288.377L427.32 187.064L442.813 171.541C450.281 164.061 456.205 155.18 460.248 145.405C464.29 135.63 466.37 125.153 466.37 114.573C466.37 103.992 464.29 93.5151 460.248 83.7404C456.205 73.9656 450.281 65.0846 442.813 57.6047Z" stroke="white" stroke-opacity="0.1" stroke-width="26" stroke-linecap="round" stroke-linejoin="round"/>
<defs>
<linearGradient id="paint0_linear_13_5" x1="540" y1="-212.343" x2="540" y2="785.967" gradientUnits="userSpaceOnUse">
<stop offset="1" stop-color="#00B8CC"/>
</linearGradient>
</defs>
</svg>
